<?xml version="1.0" standalone="no"?>
<!DOCTYPE svg PUBLIC "-//W3C//DTD SVG 20010904//EN"
 "http://www.w3.org/TR/2001/REC-SVG-20010904/DTD/svg10.dtd">
<svg version="1.0" xmlns="http://www.w3.org/2000/svg"
 width="114.000000pt" height="114.000000pt" viewBox="0 0 114.000000 114.000000"
 preserveAspectRatio="xMidYMid meet">
<metadata>
Created by potrace 1.14, written by Peter Selinger 2001-2017
</metadata>
<g transform="translate(0.000000,114.000000) scale(0.100000,-0.100000)"
fill="#000000" stroke="none">
<path d="M10 577 c0 -145 2 -266 5 -268 2 -3 26 -3 52 1 l47 5 1 210 0 210 93
1 c51 0 95 -3 97 -6 2 -4 5 -89 5 -188 1 -100 5 -182 8 -182 4 0 25 17 47 38
35 32 41 42 40 79 0 32 -7 49 -28 71 l-27 29 27 29 c22 23 28 38 28 71 0 39
-6 49 -60 103 l-59 60 -138 0 -138 0 0 -263z"/>
<path d="M350 831 c0 -6 8 -16 18 -23 9 -8 43 -41 75 -75 l59 -60 -45 -49 -45
-48 39 -41 c21 -22 39 -46 39 -53 0 -7 -34 -47 -75 -89 -41 -42 -73 -78 -71
-80 3 -3 82 -6 125 -4 22 1 50 26 150 133 l34 37 -52 48 -51 47 50 51 51 52
-83 81 -83 82 -67 0 c-38 0 -68 -4 -68 -9z"/>
<path d="M560 834 c0 -8 103 -114 112 -114 8 0 102 97 106 110 2 6 -41 10
-107 10 -61 0 -111 -3 -111 -6z"/>
<path d="M735 714 c-66 -68 -121 -128 -123 -133 -2 -5 55 -69 125 -141 l129
-131 132 135 132 136 -129 130 c-71 72 -132 130 -137 129 -5 0 -63 -56 -129
-125z m192 -86 l53 -52 -52 -53 c-29 -29 -57 -53 -63 -53 -10 0 -83 72 -98 97
-7 11 83 113 100 113 4 0 31 -23 60 -52z"/>
<path d="M611 380 c-34 -34 -60 -64 -57 -67 6 -6 225 -7 231 -1 2 2 -22 32
-54 67 l-57 63 -63 -62z"/>
</g>
</svg>
