<svg width="44" height="40" viewBox="0 0 44 40" fill="none" xmlns="http://www.w3.org/2000/svg">
<path d="M13.3708 3.00637C13.3708 2.29776 13.3708 1.64738 13.3708 1.00672C13.3708 0.055424 13.8911 -0.235788 14.7452 0.210737C15.2753 0.492242 15.7956 0.802868 16.3454 1.05525C16.5123 1.13291 16.7871 1.13291 16.954 1.05525C17.5431 0.773747 18.1026 0.443707 18.6818 0.142788C19.3592 -0.206667 19.8992 0.103959 19.9188 0.870818C19.9384 1.56002 19.9188 2.25893 19.9188 3.00637C20.1446 3.00637 20.3409 3.00637 20.5274 3.00637C27.7233 3.00637 34.9291 2.99667 42.1249 3.01608C42.5471 3.01608 43.0085 3.14227 43.3619 3.34612C43.9018 3.65675 44 4.22946 44 4.8313C43.9902 9.26743 43.9902 13.6939 43.9902 18.13C43.9902 24.7599 43.9902 31.3995 43.9902 38.0295C43.9902 39.4564 43.4502 40 42.017 40C28.6461 40 15.2851 40 1.91432 40C0.559572 39.9903 0 39.437 0 38.078C0 27.0314 0 15.975 0 4.92837C0 3.54997 0.559572 3.00637 1.97323 3.00637C5.57608 3.00637 9.16912 3.00637 12.772 3.00637C12.9487 3.00637 13.1254 3.00637 13.3708 3.00637ZM19.9482 9.01505C20.714 9.11212 21.4502 9.33538 22.1571 9.26743C23.8947 9.08299 25.6127 8.76266 27.3405 8.49086C31.4244 7.8599 35.5083 7.22895 39.602 6.60769C40.4168 6.4815 40.7407 6.76301 40.7407 7.56869C40.7407 16.8389 40.7407 26.1092 40.7407 35.3794C40.7407 36.2045 40.407 36.4666 39.5627 36.3696C38.5908 36.2434 37.6189 36.1366 36.6372 36.0201C32.4453 35.5445 28.2535 35.0591 24.0616 34.5932C23.1879 34.4961 22.2945 34.3505 21.4306 34.4184C19.6046 34.5543 17.7885 34.8261 15.9723 35.03C12.1241 35.4765 8.27577 35.9133 4.42749 36.3696C3.59304 36.4666 3.25926 36.2045 3.25926 35.3794C3.25926 26.1286 3.25926 16.8681 3.25926 7.61723C3.25926 6.76301 3.56359 6.4815 4.39804 6.60769C6.37126 6.8989 8.33467 7.20953 10.3079 7.52016C11.3092 7.67547 12.3008 7.82108 13.3315 7.9861C13.3315 6.81154 13.3315 5.68552 13.3315 4.54009C9.40473 4.54009 5.50736 4.54009 1.55109 4.54009C1.55109 15.8585 1.55109 27.1381 1.55109 38.4663C15.1772 38.4663 28.7836 38.4663 42.4391 38.4663C42.4391 27.1576 42.4391 15.8779 42.4391 4.5595C34.9192 4.5595 27.4386 4.5595 19.9384 4.5595C19.9482 6.02527 19.9482 7.48133 19.9482 9.01505ZM39.1798 8.18995C33.6921 9.03446 28.2436 9.86927 22.7755 10.7041C22.7755 10.937 22.7755 11.1118 22.7755 11.2865C22.7755 13.5968 22.7755 15.9168 22.7755 18.2271C22.7755 22.9641 22.7755 27.7011 22.7755 32.4479C22.7755 32.6906 22.6872 32.9624 23.1093 33.0012C23.9732 33.0692 24.8273 33.1856 25.6912 33.2827C29.3333 33.6904 32.9656 34.1078 36.6078 34.5155C37.4618 34.6126 38.3159 34.6999 39.1798 34.7873C39.1798 25.9053 39.1798 17.0719 39.1798 8.18995ZM21.195 32.9333C21.195 25.4879 21.195 18.1009 21.195 10.7041C15.7171 9.86927 10.2883 9.03446 4.84962 8.19965C4.84962 17.1107 4.84962 25.9442 4.84962 34.8067C10.3275 34.1758 15.7662 33.5545 21.195 32.9333ZM18.3579 8.74325C18.3579 6.47179 18.3579 4.26829 18.3579 2.01625C17.9357 2.23951 17.5529 2.42395 17.1995 2.6375C16.8264 2.86077 16.473 2.86077 16.1 2.6375C15.7367 2.42395 15.344 2.23951 14.9023 2.00654C14.9023 4.06444 14.9023 6.01556 14.9121 7.96668C14.9121 8.06375 15.0495 8.22877 15.1477 8.23848C16.1981 8.42291 17.2584 8.57823 18.3579 8.74325Z" fill="#427C9C"/>
<path d="M24.6113 15.5285C24.1205 15.5382 23.8063 15.2761 23.7573 14.8975C23.7082 14.4801 23.9241 14.1501 24.3855 14.0627C26.1035 13.7327 27.8215 13.4221 29.5395 13.1017C31.9447 12.6552 34.3597 12.2184 36.7648 11.7719C36.8728 11.7524 36.9906 11.733 37.1084 11.7233C37.5698 11.6942 37.8938 11.9369 37.9429 12.3543C38.0018 12.7717 37.776 13.1017 37.3146 13.1891C35.9402 13.4609 34.556 13.7036 33.1718 13.9559C30.423 14.4607 27.6841 14.9655 24.9353 15.4702C24.7979 15.4994 24.6702 15.5188 24.6113 15.5285Z" fill="#427C9C"/>
<path d="M36.9219 17.5573C37.5797 17.5378 37.9036 17.7708 37.9429 18.2173C37.9822 18.6639 37.6975 18.9745 37.1772 19.0327C33.8001 19.3919 30.423 19.7414 27.046 20.0908C26.2802 20.1685 25.5243 20.2558 24.7586 20.3335C24.2187 20.3917 23.826 20.1588 23.7671 19.7122C23.6983 19.2269 23.9929 18.8968 24.5721 18.8289C28.0768 18.46 31.5913 18.1009 35.0959 17.7417C35.734 17.6835 36.382 17.6155 36.9219 17.5573Z" fill="#427C9C"/>
<path d="M30.9531 30.3512C29.0094 30.3512 27.0656 30.3512 25.112 30.3512C24.9157 30.3512 24.7193 30.3512 24.5328 30.3026C24.1696 30.2056 23.934 29.9241 24.0125 29.594C24.0714 29.3416 24.3168 29.099 24.5328 28.9145C24.6408 28.8175 24.8764 28.8466 25.0531 28.8466C28.9799 28.8078 32.8969 28.7786 36.8237 28.7398C36.9906 28.7398 37.1575 28.7204 37.3146 28.7592C37.7073 28.8466 37.9527 29.0893 37.9429 29.5067C37.9331 29.8949 37.7171 30.1376 37.3342 30.2153C37.1575 30.2444 36.9808 30.2541 36.7943 30.2541C34.8505 30.2541 32.9067 30.2541 30.9531 30.2541C30.9531 30.2832 30.9531 30.3221 30.9531 30.3512Z" fill="#427C9C"/>
<path d="M30.8942 25.1288C28.9701 25.2355 27.046 25.3326 25.1218 25.4394C25.0433 25.4394 24.9549 25.4491 24.8764 25.4491C24.3561 25.4491 24.0125 25.1773 23.9929 24.7405C23.9732 24.3134 24.2972 23.993 24.8077 23.9639C26.241 23.8766 27.6743 23.7892 29.1174 23.7115C31.66 23.5659 34.2124 23.43 36.755 23.2941C36.9023 23.2844 37.0495 23.2747 37.1968 23.2844C37.6386 23.3038 37.9134 23.5659 37.9429 23.9639C37.9723 24.391 37.7073 24.7114 37.2557 24.7502C36.4409 24.8181 35.6261 24.8667 34.8112 24.9055C33.5056 24.9832 32.1999 25.0511 30.8942 25.1288Z" fill="#427C9C"/>
<path d="M19.0451 15.48C17.4743 15.1887 15.884 14.9072 14.2936 14.616C11.7216 14.1404 9.1593 13.6647 6.58724 13.1988C6.21419 13.1308 5.88041 13.0338 5.74297 12.6358C5.54663 12.0631 6.03748 11.568 6.70504 11.6845C9.00223 12.1019 11.2994 12.529 13.5966 12.9464C15.4618 13.2862 17.3271 13.6259 19.1825 13.9754C19.693 14.0724 19.9875 14.4316 19.9188 14.8393C19.8501 15.2373 19.477 15.5188 19.0451 15.48Z" fill="#427C9C"/>
<path d="M18.9174 20.2849C16.2865 20.0132 13.6555 19.7316 11.0245 19.4598C9.63052 19.3142 8.22668 19.1686 6.83266 19.023C6.71486 19.0133 6.60687 19.0036 6.48907 18.9939C5.93931 18.9065 5.6448 18.5862 5.71352 18.13C5.77242 17.6835 6.14547 17.4408 6.69523 17.499C8.48193 17.6835 10.2686 17.8776 12.0553 18.062C14.3918 18.3047 16.7381 18.5571 19.0745 18.8095C19.6537 18.8677 19.9581 19.1783 19.9188 19.6152C19.8795 20.0617 19.5065 20.3141 18.9174 20.2849Z" fill="#427C9C"/>
<path d="M6.66577 23.2359C10.6809 23.4592 14.6961 23.6727 18.7113 23.896C19.3396 23.9348 19.6734 24.2357 19.6439 24.7211C19.6145 25.1967 19.2316 25.4491 18.6033 25.4103C14.6372 25.187 10.6711 24.9638 6.70504 24.7502C6.65596 24.7502 6.60687 24.7502 6.55779 24.7405C5.97858 24.692 5.66444 24.3813 5.7037 23.896C5.74297 23.43 6.08657 23.1971 6.66577 23.2359Z" fill="#427C9C"/>
<path d="M12.6836 30.1862C10.6908 30.1862 8.6979 30.1862 6.69523 30.1862C6.54797 30.1862 6.3909 30.1959 6.25346 30.157C5.89023 30.0406 5.67425 29.7979 5.69389 29.3999C5.71352 29.0116 5.9295 28.7786 6.32218 28.7107C6.4498 28.6913 6.58724 28.6913 6.71486 28.6913C10.6908 28.7301 14.6569 28.7689 18.6328 28.798C18.7113 28.798 18.7996 28.798 18.8782 28.8078C19.3298 28.8466 19.6341 29.1281 19.6341 29.5358C19.6439 29.9629 19.3298 30.2832 18.8487 30.2832C17.8965 30.2929 16.954 30.2735 16.0018 30.2735C14.8925 30.2735 13.7831 30.2735 12.664 30.2735C12.6836 30.2444 12.6836 30.2153 12.6836 30.1862Z" fill="#427C9C"/>
</svg>
