<svg width="40" height="44" viewBox="0 0 40 44" fill="none" xmlns="http://www.w3.org/2000/svg">
<path d="M16.5406 38.7639C16.9024 36.7328 17.2824 34.7111 17.6262 32.68C17.6624 32.4378 17.6172 32.1489 17.5176 31.9346C16.9386 30.6582 16.2782 29.4098 15.7444 28.1147C15.5454 27.6303 15.5454 27.0247 15.5906 26.4843C15.6268 26.0278 16.052 25.9346 16.4682 25.9346C18.0514 25.9346 19.6347 25.9346 21.2179 25.9346C22.005 25.9346 22.783 25.9253 23.5701 25.9346C24.1944 25.9439 24.4205 26.2048 24.4567 26.8476C24.4839 27.4346 24.3753 27.9657 24.1039 28.4967C23.5339 29.6241 23.0002 30.77 22.4845 31.9253C22.385 32.1489 22.3307 32.4378 22.3759 32.6707C22.7197 34.7018 23.0997 36.7235 23.4797 38.8757C23.543 38.6801 23.5882 38.5776 23.6063 38.4751C24.2758 34.5806 24.9362 30.6862 25.5967 26.7917C25.7324 26.0184 26.0943 25.8041 26.818 26.0837C30.5454 27.5557 34.2728 29.0185 37.9911 30.4998C39.4025 31.0589 40.0901 32.121 39.9905 33.6769C39.8187 36.3881 39.6015 39.09 39.4025 41.8012C39.3753 42.2205 39.3482 42.6397 39.312 43.059C39.2396 43.8509 39.0677 44 38.2807 44C35.5665 44 32.8524 44 30.1383 44C20.7022 44 11.2571 44 1.82099 44C0.898186 44 0.744385 43.8789 0.672009 42.9192C0.436785 39.8819 0.210609 36.854 0.0115733 33.8167C-0.0969915 32.0837 0.554397 31.0775 2.12859 30.4533C5.7836 29.0091 9.42957 27.5557 13.0846 26.1116C13.9169 25.7855 14.2517 25.9812 14.4055 26.8756C15.0659 30.7048 15.7173 34.5434 16.3687 38.3726C16.3868 38.503 16.4229 38.6335 16.4591 38.7639C16.4953 38.7826 16.5134 38.7732 16.5406 38.7639ZM15.6087 42.5C14.7673 37.562 13.935 32.68 13.0936 27.7327C12.5508 27.947 12.0532 28.1427 11.5466 28.3383C8.552 29.5216 5.56647 30.7048 2.57189 31.8881C1.71242 32.2328 1.41387 32.6893 1.45006 33.621C1.4591 33.8073 1.46815 33.9937 1.48624 34.18C1.631 36.1179 1.7667 38.0465 1.91146 39.9844C1.97479 40.8323 2.04716 41.6708 2.11049 42.5093C6.62498 42.5 11.0852 42.5 15.6087 42.5ZM37.9007 42.5C38.1178 39.5279 38.344 36.5931 38.543 33.649C38.6063 32.68 38.2987 32.2421 37.4031 31.8881C34.0466 30.5558 30.6902 29.2328 27.3337 27.9004C27.198 27.8445 27.0623 27.8166 26.8994 27.7607C26.0581 32.6986 25.2257 37.5807 24.3934 42.5C28.9079 42.5 33.3771 42.5 37.9007 42.5ZM22.6292 42.5C22.6202 42.3695 22.6202 42.2857 22.6021 42.2112C22.0231 38.9968 21.4441 35.7825 20.8831 32.5682C20.8289 32.2701 20.8831 31.916 21.0098 31.6365C21.5707 30.388 22.1769 29.1582 22.7559 27.9191C22.8283 27.7793 22.8826 27.6209 22.9459 27.4625C20.9465 27.4625 19.0195 27.4625 17.0381 27.4625C17.1196 27.6489 17.1739 27.7886 17.2372 27.9191C17.8252 29.1582 18.4223 30.388 18.9923 31.6365C19.1009 31.8787 19.1823 32.1769 19.1371 32.4284C18.6938 34.9906 18.2233 37.5527 17.771 40.1055C17.6262 40.8882 17.4995 41.6801 17.3548 42.4907C19.1371 42.5 20.8651 42.5 22.6292 42.5Z" fill="#427C9C"/>
<path d="M29.0617 7.43127C29.4507 8.73564 29.6678 10.0214 29.5593 11.363C29.4145 13.0959 28.5551 14.4469 27.4785 15.7047C27.2794 15.9376 27.1166 16.2823 27.0713 16.5898C26.7456 18.6581 26.049 20.5494 24.8729 22.2824C22.4935 25.8041 17.2281 25.8228 14.8307 22.2731C13.5098 20.3258 12.8041 18.1736 12.4965 15.8537C12.4513 15.5463 12.3337 15.2295 12.1708 14.9593C11.1666 13.2823 10.5062 11.4934 10.289 9.53689C10.0357 7.2822 11.0038 5.21386 13.1027 4.47783C13.2474 4.43124 13.3741 4.20764 13.4374 4.03993C14.1431 2.09271 15.3373 0.667226 17.3729 0.164115C18.6033 -0.143342 19.8246 0.015045 21.0369 0.359769C22.584 0.806979 23.9953 1.56165 25.3795 2.40016C26.5828 3.12688 27.8675 3.63931 29.2788 3.77906C29.4869 3.79769 29.704 3.78838 29.9121 3.77906C30.5545 3.76974 30.8892 4.20764 30.7083 4.84118C30.4007 5.85672 29.9212 6.76046 29.0617 7.43127ZM24.4025 9.10831C24.0858 9.28533 23.7873 9.47167 23.4797 9.62074C20.9465 10.8319 18.4947 10.4686 16.1063 9.16421C15.3554 8.75427 15.3373 8.74495 14.9573 9.55552C14.9121 9.64869 14.8669 9.75117 14.8307 9.85366C14.0979 11.95 13.6365 14.0742 14.0255 16.3196C14.3602 18.2761 15.0207 20.0743 16.2149 21.6581C18.0243 24.0526 21.7517 23.9594 23.4435 21.7047C23.733 21.3134 24.0315 20.9128 24.2668 20.4842C25.9586 17.4096 26.1576 14.1581 25.3072 10.804C25.1534 10.1798 24.891 9.58347 24.4025 9.10831ZM12.6232 12.4344C12.7408 11.9127 12.8313 11.3816 12.976 10.8599C13.1208 10.3195 13.2565 9.76981 13.5098 9.28533C13.8264 8.67974 14.2064 8.08346 14.6497 7.58034C15.1111 7.0586 15.5092 7.10518 16.1153 7.43127C16.821 7.81327 17.5176 8.22321 18.2685 8.48408C20.1232 9.13626 21.9145 9.01514 23.5792 7.85053C24.4296 7.25425 24.701 7.25425 25.4248 8.03687C25.7414 8.38159 26.049 8.7729 26.23 9.20148C26.5376 9.93751 26.7728 10.7108 26.9628 11.4841C27.1166 12.127 27.1618 12.8071 27.2704 13.5431C27.8675 12.6953 28.1118 11.8102 28.1479 10.8599C28.1932 9.64869 27.9127 8.4934 27.5056 7.36606C27.3066 6.82568 27.4604 6.43437 27.9399 6.2853C28.4555 6.12691 28.7089 5.7356 28.9712 5.25113C26.9356 4.99025 25.2076 4.03062 23.4887 3.02439C22.7197 2.57718 21.8783 2.25109 21.046 1.93432C20.087 1.57096 19.0918 1.39394 18.0695 1.54301C16.1606 1.83183 15.1925 3.15483 14.704 4.93435C14.5683 5.42815 14.3421 5.69834 13.8445 5.81014C12.6956 6.08033 11.9266 6.96543 11.7637 8.15799C11.5375 9.68596 12.0261 11.0742 12.6232 12.4344Z" fill="#427C9C"/>
<path d="M31.4501 35.1956C30.5454 35.1956 29.6407 35.1956 28.736 35.1956C28.3832 35.1956 28.0756 35.0465 28.0122 34.6924C27.976 34.4502 28.0575 34.1427 28.1932 33.9378C28.2836 33.798 28.5641 33.7235 28.7541 33.7235C30.5726 33.7049 32.4001 33.7049 34.2276 33.7142C34.7342 33.7142 35.0328 34.0216 35.0237 34.4688C35.0147 34.9067 34.7161 35.1956 34.2004 35.1956C33.2867 35.2049 32.3639 35.1956 31.4501 35.1956Z" fill="#427C9C"/>
</svg>
