<svg width="44" height="40" viewBox="0 0 44 40" fill="none" xmlns="http://www.w3.org/2000/svg">
<path d="M13.8856 22.2669C12.5029 22.2669 11.1595 22.2669 9.76698 22.2669C9.35512 23.9798 8.95307 25.6828 8.54121 27.3759C8.41372 27.8977 8.27644 28.4292 8.15876 28.951C8.07051 29.325 7.88419 29.5908 7.49194 29.6302C7.11931 29.6696 6.89376 29.4333 6.73686 29.1183C5.63857 26.9723 4.53047 24.846 3.43217 22.7001C3.27527 22.3949 3.11837 22.2472 2.74574 22.2177C1.12771 22.0897 0.00980621 20.8789 0 19.2547C0 13.8307 0 8.39686 0.00980621 2.97286C0.00980621 1.24033 1.265 0.00984391 2.99089 0C11.738 0 20.4754 0 29.2225 0C30.9974 0 32.2428 1.25018 32.2624 3.03193C32.2722 4.11476 32.2722 5.19759 32.2624 6.28042C32.2526 6.60527 32.3409 6.75292 32.6841 6.85136C38.6757 8.61342 42.4217 12.5411 43.7063 18.6739C45.3929 26.7656 39.6171 35.0443 31.4779 36.3437C29.8697 36.5997 28.2615 36.6194 26.6435 36.3831C26.4473 36.3536 26.1924 36.4323 26.0159 36.5406C24.2704 37.5939 22.5249 38.6669 20.7794 39.73C20.4656 39.9269 20.1027 40.1533 19.7987 39.858C19.5928 39.6513 19.4457 39.2674 19.4457 38.9622C19.4457 37.1903 19.5045 35.4184 19.5144 33.6465C19.5144 33.4398 19.4163 33.1543 19.2594 33.0263C16.0233 30.2307 14.2386 26.7164 13.9248 22.4441C13.9346 22.4047 13.915 22.3654 13.8856 22.2669ZM7.19776 26.864C7.62923 25.0528 8.03128 23.3793 8.43334 21.7157C8.61966 20.9478 8.78636 20.81 9.58066 20.81C11.4733 20.81 13.3659 20.81 15.2585 20.81C19.838 20.81 24.4076 20.81 28.9871 20.81C30.2914 20.81 30.8111 20.2785 30.8111 18.9495C30.8111 13.7323 30.8111 8.51499 30.8111 3.29771C30.8111 1.95894 30.2718 1.42737 28.9381 1.42737C20.3871 1.42737 11.8459 1.42737 3.29489 1.42737C1.94163 1.42737 1.40229 1.97863 1.40229 3.34693C1.40229 8.53467 1.4219 13.7126 1.39248 18.9003C1.38268 20.0717 1.98085 20.9282 3.29489 20.81C3.84403 20.7608 4.16764 21.0168 4.40299 21.4991C5.2071 23.1037 6.05043 24.6984 6.87415 26.3029C6.96241 26.4506 7.05066 26.5983 7.19776 26.864ZM15.3761 22.2472C15.3663 22.3555 15.3565 22.4047 15.3565 22.454C15.6801 26.4014 17.3472 29.64 20.4165 32.1404C20.8284 32.4751 21.0147 32.8295 20.9853 33.361C20.9363 34.4931 20.9264 35.6251 20.9068 36.7572C20.897 37.1411 20.9068 37.525 20.9068 37.9778C21.1324 37.8498 21.2893 37.7613 21.4364 37.6727C22.7994 36.8359 24.1625 35.9795 25.5452 35.1821C25.8394 35.0148 26.2414 34.9656 26.5944 34.9656C27.7516 34.9754 28.9087 35.1526 30.056 35.0739C36.4791 34.6112 41.8823 29.3939 42.4315 22.9659C42.9414 17.0595 40.5389 12.5608 35.4691 9.50922C34.4884 8.91859 33.4294 8.4953 32.2918 8.25904C32.2918 11.7241 32.2918 15.1596 32.2918 18.6247C32.5272 18.6247 32.7233 18.6247 32.9194 18.6247C34.0177 18.6345 35.1062 18.6345 36.2045 18.6542C36.685 18.6641 36.9792 18.9495 36.9792 19.363C36.989 19.7764 36.6948 20.0619 36.2241 20.0914C36.0966 20.1013 35.9594 20.0914 35.8319 20.0914C34.7238 20.0717 33.6059 20.0521 32.4978 20.0521C32.3507 20.0521 32.1251 20.18 32.0663 20.308C31.4975 21.6665 30.4679 22.2768 29.0264 22.2768C24.6626 22.2669 20.2988 22.2768 15.9351 22.2768C15.7586 22.2472 15.5723 22.2472 15.3761 22.2472Z" fill="#427C9C"/>
<path d="M12.297 11.0941C12.3068 11.9013 11.6988 12.5313 10.9045 12.551C10.1004 12.5707 9.43357 11.921 9.43357 11.1138C9.43357 10.3361 10.0906 9.67657 10.8653 9.66672C11.64 9.65688 12.297 10.3066 12.297 11.0941Z" fill="#427C9C"/>
<path d="M14.6995 11.0941C14.7093 10.3066 15.3565 9.66672 16.141 9.66672C16.9157 9.67657 17.5629 10.3361 17.5727 11.1138C17.5727 11.921 16.9059 12.5707 16.1018 12.551C15.2879 12.5313 14.6897 11.9013 14.6995 11.0941Z" fill="#427C9C"/>
<path d="M22.8092 11.1039C22.819 11.9013 22.1914 12.5411 21.3971 12.551C20.593 12.5608 19.9262 11.9013 19.936 11.0941C19.9458 10.3164 20.6126 9.66672 21.3775 9.66672C22.162 9.66672 22.8092 10.3164 22.8092 11.1039Z" fill="#427C9C"/>
<path d="M29.3892 23.0643C31.576 23.0643 33.7628 23.0643 35.9496 23.0643C36.1457 23.0643 36.381 23.0348 36.5183 23.143C36.7144 23.2907 36.9694 23.5466 36.9596 23.7534C36.9596 23.9896 36.7341 24.2652 36.5281 24.4228C36.3908 24.531 36.1261 24.5015 35.9103 24.5015C31.5466 24.5015 27.1926 24.5015 22.8288 24.5015C22.6621 24.5015 22.4954 24.5113 22.3385 24.472C21.9855 24.3834 21.7698 24.1471 21.7796 23.7632C21.7894 23.4088 21.9855 23.1726 22.3189 23.0938C22.4856 23.0544 22.6719 23.0544 22.8485 23.0544C25.0451 23.0643 27.2122 23.0643 29.3892 23.0643Z" fill="#427C9C"/>
<path d="M26.9769 27.2578C28.3988 27.2578 29.8207 27.2578 31.2328 27.2578C31.8211 27.2578 32.1447 27.5334 32.1349 27.9862C32.1251 28.4194 31.8015 28.6753 31.2426 28.6753C28.3694 28.6753 25.4961 28.6753 22.6229 28.6753C22.0542 28.6753 21.76 28.4292 21.7502 27.9764C21.7502 27.5236 22.0345 27.2676 22.6033 27.2676C24.0742 27.248 25.5256 27.2578 26.9769 27.2578Z" fill="#427C9C"/>
</svg>
