<svg width="42" height="42" viewBox="0 0 42 42" fill="none" xmlns="http://www.w3.org/2000/svg">
<path d="M42 3.62507C42 4.8307 42 6.02812 42 7.23374C41.7867 7.60281 41.4749 7.73404 41.0483 7.72584C39.1858 7.70943 37.3315 7.71763 35.469 7.71763C35.3214 7.71763 35.1819 7.71763 35.0014 7.71763C35.0014 7.90627 35.0014 8.04569 35.0014 8.17692C35.0014 16.0996 35.0014 24.0305 35.0014 31.9531C35.0014 32.3304 34.9768 32.7241 34.8947 33.0931C34.4599 35.0615 32.7943 36.3984 30.7677 36.4148C29.8816 36.423 28.9955 36.4148 28.052 36.4148C28.1258 36.5952 28.1832 36.7346 28.2407 36.8658C28.5607 37.5712 28.8888 38.2847 29.2006 38.99C29.496 39.6462 29.4304 40.2285 28.9955 40.655C28.5114 41.1306 27.9535 41.2045 27.3382 40.942C26.9361 40.7698 26.5341 40.6222 26.0992 40.4581C25.7957 41.1224 25.5249 41.7868 24.7619 42C24.5403 42 24.327 42 24.1055 42C23.5394 41.7704 23.2194 41.3439 23.0061 40.7698C22.5302 39.5231 21.9969 38.3011 21.5128 37.0545C21.4061 36.7838 21.242 36.71 20.9959 36.71C20.7498 36.71 20.5857 36.7756 20.479 37.0545C19.9949 38.3011 19.4534 39.5231 18.9857 40.7698C18.7724 41.3439 18.4524 41.7704 17.8863 41.9918C17.6402 41.9918 17.394 41.9918 17.1479 41.9918C16.4505 41.713 16.1797 41.0814 15.8926 40.4417C15.4003 40.6385 14.9326 40.8354 14.4567 40.9994C13.8824 41.1963 13.3737 41.0486 12.9635 40.6139C12.5614 40.1793 12.504 39.6708 12.7173 39.1295C12.8158 38.8752 12.9389 38.6292 13.0537 38.3831C13.3409 37.7434 13.6363 37.0955 13.948 36.4066C13.7265 36.4066 13.5624 36.4066 13.3983 36.4066C10.3544 36.4066 7.30221 36.4148 4.25825 36.4066C2.15784 36.3984 0.516898 35.0451 0.0738425 32.9947C0.0574331 32.9291 0.0246142 32.8717 0 32.8143C0 31.6087 0 30.4113 0 29.2056C0.188709 28.8038 0.508693 28.6971 0.935339 28.6971C2.79781 28.7135 4.65208 28.7053 6.51455 28.7053C6.66224 28.7053 6.80992 28.7053 6.99043 28.7053C6.99043 28.5249 6.99043 28.3937 6.99043 28.2542C6.99043 24.2355 6.99043 20.2168 6.99043 16.198C6.99043 12.2449 6.98222 8.29994 6.99043 4.34681C6.99863 2.1488 8.30318 0.549502 10.4364 0.0738137C10.4856 0.0656122 10.5267 0.0246046 10.5759 0C19.8472 0 29.1186 0 38.3899 0C40.3591 0.451084 41.5569 1.65671 42 3.62507ZM33.5984 7.71763C33.3932 7.71763 33.2456 7.71763 33.0979 7.71763C30.4888 7.71763 27.8715 7.71763 25.2624 7.71763C21.8 7.71763 18.3458 7.71763 14.8834 7.71763C14.227 7.71763 13.9973 7.48799 13.9973 6.82367C13.9973 6.01992 14.0055 5.20797 13.9891 4.40422C13.9809 4.09256 13.9562 3.7727 13.8824 3.46924C13.5214 2.12419 12.2004 1.24663 10.8631 1.41886C9.39441 1.6157 8.38523 2.78032 8.38523 4.314C8.37703 7.65202 8.38523 10.9818 8.38523 14.3199C8.38523 20.225 8.37703 26.1301 8.38523 32.0352C8.38523 33.0521 8.11448 33.9707 7.49092 34.7827C7.44989 34.8401 7.43348 34.9139 7.38425 35.0041C8.60676 35.0041 9.78004 35.0041 10.9533 35.0041C12.0609 35.0041 13.1686 35.0123 14.2762 34.9959C14.3993 34.9959 14.5798 34.8893 14.6372 34.7745C14.7029 34.6432 14.7193 34.4054 14.6454 34.3152C14.2024 33.7903 14.0383 33.1834 14.0711 32.5272C14.0957 31.9121 13.9398 31.3872 13.546 30.8951C12.7584 29.911 12.7501 28.8366 13.5214 27.8524C13.9234 27.3357 14.0957 26.7944 14.0793 26.1465C14.0383 24.9244 14.629 24.1125 15.8023 23.768C16.4423 23.5794 16.9099 23.2431 17.2792 22.6936C17.9519 21.693 18.9365 21.3732 20.0688 21.7915C20.6923 22.0211 21.2749 22.0211 21.9066 21.7997C23.0553 21.3814 24.0234 21.6848 24.7044 22.6936C25.0819 23.2431 25.5495 23.5876 26.1813 23.7762C27.3792 24.1289 27.9535 24.9326 27.9125 26.1875C27.8879 26.8272 28.0684 27.3521 28.4622 27.8524C29.2334 28.853 29.2334 29.9028 28.4458 30.8951C28.0602 31.3872 27.8879 31.9039 27.9207 32.5272C27.9535 33.1588 27.814 33.7575 27.3792 34.2414C27.2233 34.4218 27.2233 34.5448 27.3053 34.7417C27.3874 34.9549 27.5187 35.0205 27.7402 35.0205C28.6837 35.0123 29.6273 35.0205 30.5708 35.0123C32.4579 35.0041 33.6066 33.8559 33.6066 31.9695C33.6066 24.4077 33.6066 16.8541 33.6066 9.29233C33.5984 8.79203 33.5984 8.28354 33.5984 7.71763ZM40.6052 6.30697C40.6052 5.82308 40.6052 5.3884 40.6052 4.95372C40.6052 4.58465 40.6298 4.20738 40.5724 3.84651C40.3508 2.36204 39.2104 1.41886 37.6515 1.41886C29.9801 1.41886 22.3169 1.41886 14.6454 1.41886C14.5716 1.41886 14.4978 1.42707 14.3255 1.43527C15.6792 2.87873 15.3757 4.62566 15.4167 6.30697C23.8265 6.30697 32.1871 6.30697 40.6052 6.30697ZM15.4823 32.2156C15.4659 33.29 15.5151 33.3884 16.393 33.6591C17.2627 33.9215 17.8945 34.4546 18.4114 35.1763C18.8381 35.775 19.0268 35.8325 19.6996 35.5782C20.5775 35.2502 21.4225 35.2584 22.3004 35.5782C22.9732 35.8243 23.1784 35.7586 23.5886 35.1681C24.1219 34.3972 24.8111 33.8723 25.7218 33.6098C26.4274 33.413 26.5341 33.2326 26.5095 32.478C26.4849 31.5841 26.731 30.7885 27.2971 30.0832C27.7402 29.5337 27.7402 29.1892 27.2807 28.6233C26.7228 27.9262 26.4767 27.147 26.5013 26.2695C26.5177 25.4985 26.3864 25.3017 25.6562 25.0885C24.8193 24.8424 24.1711 24.3831 23.6624 23.6696C23.1373 22.9315 23.0061 22.9069 22.1528 23.2021C21.3897 23.4646 20.6267 23.4728 19.8636 23.2103C18.9447 22.8987 18.8545 22.9233 18.2883 23.7024C17.8043 24.3749 17.1971 24.826 16.393 25.0557C15.5972 25.2853 15.4577 25.4903 15.4741 26.3187C15.4905 27.1388 15.2772 27.877 14.7603 28.5331C14.2188 29.2302 14.2188 29.5009 14.7603 30.198C15.2772 30.8377 15.5069 31.5595 15.4823 32.2156ZM1.3948 30.1324C1.3948 30.9033 1.37019 31.6333 1.40301 32.355C1.45224 33.7657 2.58449 34.8893 4.03673 35.0123C5.3823 35.1189 6.73608 34.1347 6.92479 32.7569C7.03966 31.9039 6.9494 31.0264 6.9494 30.1324C5.10334 30.1324 3.26548 30.1324 1.3948 30.1324ZM23.0471 37.1201C23.5147 38.2683 23.9742 39.3919 24.4501 40.5811C24.5732 40.3597 24.647 40.2203 24.729 40.0808C25.2788 39.0639 25.8449 38.8506 26.9115 39.2771C27.2397 39.4083 27.5761 39.5313 27.9945 39.6954C27.2643 38.0879 26.5833 36.5788 25.9105 35.0861C25.3444 35.1763 25.049 35.5454 24.7701 35.9473C24.3516 36.5378 23.8511 37.0135 23.0471 37.1201ZM16.0895 35.0697C15.4003 36.5952 14.7193 38.1043 13.9973 39.7036C14.506 39.4985 14.9162 39.3263 15.3346 39.1705C16.0813 38.8916 16.7705 39.1459 17.1397 39.843C17.2627 40.0726 17.3776 40.3023 17.5253 40.5975C18.0176 39.4001 18.477 38.2765 18.9447 37.1365C18.1653 36.9889 17.632 36.5624 17.2135 35.9473C16.9428 35.5372 16.6392 35.1763 16.0895 35.0697Z" fill="#427C9C"/>
<path d="M17.8781 16.1078C15.8433 16.1078 13.8086 16.1078 11.7738 16.1078C11.5933 16.1078 11.421 16.1078 11.2405 16.1078C10.781 16.0914 10.4938 15.8125 10.4938 15.4107C10.4938 15.017 10.7974 14.7135 11.2487 14.7135C12.3809 14.7053 13.5132 14.7053 14.6536 14.7053C17.8617 14.7053 21.0779 14.7053 24.286 14.7053C24.3516 14.7053 24.4255 14.7053 24.4911 14.7053C24.9096 14.7381 25.1885 15.0252 25.1885 15.4107C25.1885 15.8125 24.9178 16.0914 24.4829 16.0914C23.523 16.0996 22.5712 16.0996 21.6113 16.0996C20.3723 16.1078 19.1252 16.1078 17.8781 16.1078Z" fill="#427C9C"/>
<path d="M23.4573 11.2115C25.5331 11.2115 27.6089 11.2115 29.6847 11.2115C29.8652 11.2115 30.0457 11.2033 30.218 11.2361C30.5544 11.2935 30.7513 11.5067 30.7841 11.843C30.817 12.1957 30.6529 12.4581 30.3083 12.5647C30.1524 12.6139 29.9883 12.6139 29.8242 12.6139C25.5741 12.6139 21.3241 12.6139 17.074 12.6139C16.9264 12.6139 16.7705 12.6139 16.631 12.5811C16.2782 12.4991 16.1059 12.2449 16.0977 11.9004C16.0895 11.5641 16.352 11.2853 16.6966 11.2361C16.8033 11.2197 16.9181 11.2197 17.0248 11.2197C19.1662 11.2197 21.3159 11.2197 23.4573 11.2115Z" fill="#427C9C"/>
<path d="M13.7019 18.2156C14.4649 18.2156 15.2362 18.2156 15.9992 18.2156C16.4751 18.2156 16.7951 18.5026 16.7951 18.9127C16.7951 19.3146 16.4751 19.6098 15.9992 19.6098C14.4239 19.618 12.8568 19.618 11.2815 19.6098C10.7974 19.6098 10.4856 19.3228 10.4856 18.9127C10.4856 18.4944 10.7974 18.2156 11.2733 18.2156C12.0938 18.2074 12.8978 18.2156 13.7019 18.2156Z" fill="#427C9C"/>
<path d="M12.2168 12.6139C11.8887 12.6139 11.5605 12.6221 11.2323 12.6139C10.781 12.5893 10.4856 12.3105 10.4938 11.9086C10.4938 11.5067 10.781 11.2279 11.2487 11.2197C11.9133 11.2033 12.5861 11.2033 13.2506 11.2197C13.7019 11.2279 13.9973 11.5231 13.9973 11.925C13.9891 12.3187 13.6937 12.5975 13.2424 12.6221C13.0619 12.6303 12.8896 12.6221 12.7091 12.6221C12.545 12.6221 12.3809 12.6221 12.2168 12.6139Z" fill="#427C9C"/>
<path d="M29.0529 16.1078C28.7001 16.1078 28.3473 16.116 27.9945 16.1078C27.5843 16.0914 27.3217 15.8207 27.3135 15.4435C27.3053 15.0744 27.5597 14.7381 27.9453 14.7299C28.6837 14.7053 29.4139 14.7053 30.1524 14.7299C30.5462 14.7463 30.8005 15.0662 30.7923 15.4353C30.7841 15.8125 30.5216 16.0914 30.1196 16.1078C29.7585 16.116 29.4057 16.1078 29.0529 16.1078Z" fill="#427C9C"/>
<path d="M21.0041 25.1787C23.3589 25.1951 25.2049 27.0568 25.1885 29.4107C25.1721 31.7399 23.2768 33.5852 20.9221 33.5688C18.6247 33.5524 16.7869 31.6579 16.7951 29.3122C16.8115 27.0158 18.7068 25.1623 21.0041 25.1787ZM23.7937 29.3779C23.7937 27.8278 22.5712 26.5893 21.0287 26.5811C19.4534 26.5729 18.2145 27.795 18.2063 29.3615C18.1981 30.9197 19.4534 32.1746 21.0123 32.1664C22.5384 32.1582 23.7855 30.9115 23.7937 29.3779Z" fill="#427C9C"/>
</svg>
