<svg width="42" height="42" viewBox="0 0 42 42" fill="none" xmlns="http://www.w3.org/2000/svg">
<path d="M42 3.76523C42 10.5738 42 17.3824 42 24.191C41.4258 25.5691 40.909 25.9055 39.375 25.8973C37.8 25.8973 36.2332 25.8973 34.6582 25.8973C34.1086 25.8973 33.4605 25.725 33.0504 25.9629C32.6238 26.209 32.4105 26.8406 32.1152 27.3164C31.7379 27.9234 31.3687 28.5387 30.9914 29.1621C31.8527 29.8266 32.2957 30.6633 32.1973 31.7133C32.0086 33.7148 30.0316 34.8387 28.1777 34.0102C25.9219 32.993 23.6824 31.9676 21.4266 30.9422C21.2953 30.8848 21.1641 30.8356 21 30.7699C21 30.9422 21 31.0488 21 31.1637C21 34.1824 20.9836 37.2094 21.0082 40.2281C21.0164 41.0813 20.7293 41.6801 19.9336 42C15.0363 42 10.1473 42 5.25 42C4.42969 41.6637 4.15898 41.0402 4.18359 40.1789C4.22461 38.8828 4.1918 37.5785 4.1918 36.2824C4.1918 35.9871 4.1918 35.6918 4.1918 35.3555C4.05234 35.4129 3.96211 35.4539 3.88008 35.4867C2.28867 36.1184 0.582422 35.2898 0.0984375 33.6492C0.0738281 33.559 0.0328125 33.477 0 33.3867C0 29.0145 0 24.634 0 20.2617C0.0246094 20.1879 0.0574219 20.1141 0.0738281 20.032C0.344531 18.3668 1.15664 17.0133 2.51016 16.0043C2.73984 15.832 2.80547 15.668 2.80547 15.3973C2.79727 11.7059 2.79727 8.01445 2.80547 4.33125C2.80547 3.00234 3.675 2.12461 5.01211 2.11641C5.87344 2.1082 6.73477 2.12461 7.59609 2.1C7.78477 2.0918 7.99805 1.97695 8.16211 1.86211C8.71992 1.47656 9.22852 0.984375 9.82734 0.689063C10.4754 0.369141 11.2137 0.221484 11.9109 0C12.3785 0 12.8379 0 13.3055 0C13.3547 0.0246094 13.4039 0.0574219 13.4531 0.065625C14.8805 0.2625 16.0945 0.885937 17.1199 1.90313C17.2512 2.03437 17.5055 2.1 17.7023 2.1C21.4266 2.1082 25.159 2.1082 28.8832 2.1082C32.5008 2.1082 36.1184 2.1082 39.7359 2.1082C40.9008 2.1082 41.5652 2.59219 41.9426 3.6832C41.9426 3.70781 41.9754 3.73242 42 3.76523ZM4.1918 14.9051C5.14336 14.8313 6.0375 14.7 6.93164 14.6918C9.53203 14.6672 12.1242 14.6754 14.7246 14.6836C15.9223 14.6918 17.1363 14.6426 18.3258 14.7656C21.0902 15.0609 23.3297 17.2922 23.707 20.0484C23.8875 21.3773 23.9941 22.7063 24.0926 24.0434C24.1254 24.4371 24.2648 24.5027 24.6094 24.4945C26.8652 24.4781 29.1211 24.4617 31.377 24.5027C31.9922 24.5191 32.3449 24.3387 32.6238 23.7973C32.9355 23.1738 33.3293 22.5996 33.7066 22.009C33.9281 21.6645 34.3547 21.5906 34.6746 21.7957C34.9863 22.0008 35.0766 22.3781 34.8879 22.7309C34.7895 22.9113 34.6746 23.0836 34.568 23.2559C34.3301 23.6414 34.0922 24.0352 33.8215 24.4781C35.8969 24.4781 37.882 24.4863 39.859 24.4699C40.3594 24.4699 40.5891 24.1582 40.5891 23.584C40.5891 17.202 40.5891 10.8117 40.5891 4.42969C40.5891 3.69141 40.3758 3.47813 39.6375 3.47813C32.6648 3.47813 25.6922 3.47813 18.7195 3.47813C18.5801 3.47813 18.4324 3.47813 18.2273 3.47813C18.8754 4.88086 19.0477 6.26719 18.7113 7.70274C18.3668 9.15469 17.6121 10.3441 16.4309 11.2465C14.3637 12.8297 11.55 13.0594 9.43359 11.6977C6.34922 9.73711 5.66016 6.91523 6.89062 3.50273C6.28359 3.50273 5.70117 3.50273 5.11875 3.50273C4.42148 3.50273 4.2 3.73242 4.2 4.44609C4.2 6.92344 4.2 9.39258 4.2 11.8699C4.1918 12.9035 4.1918 13.9371 4.1918 14.9051ZM19.5809 36.3809C19.5891 36.2824 19.6055 36.225 19.6055 36.1758C19.6055 34.1414 19.6137 32.0988 19.5973 30.0645C19.5973 29.9168 19.4988 29.7691 19.4414 29.6215C19.2773 29.1949 19.023 28.7848 18.9492 28.3418C18.7687 27.2098 18.6703 26.0613 18.5391 24.9211C18.4488 24.0926 18.3586 23.2641 18.2766 22.4355C18.2438 22.1156 18.375 21.8203 18.6785 21.7547C18.9082 21.6973 19.2281 21.7465 19.425 21.8777C19.5809 21.9844 19.6547 22.2715 19.6793 22.4848C19.8926 24.3059 20.0977 26.1188 20.2863 27.9398C20.3602 28.6371 20.7047 29.0801 21.3527 29.359C22.616 29.9086 23.8629 30.4992 25.118 31.0652C26.3484 31.623 27.5789 32.1809 28.8094 32.7387C29.3262 32.9766 29.8266 32.9027 30.2777 32.5582C30.7207 32.2219 30.8684 31.7543 30.7781 31.2129C30.6879 30.6961 30.3598 30.3762 29.9004 30.1629C27.8004 29.2113 25.7004 28.2516 23.6004 27.3082C23.1902 27.1277 22.9605 26.8734 22.9441 26.4223C22.9359 26.1105 22.8785 25.7988 22.8539 25.4871C22.7063 23.9531 22.493 22.4191 22.4273 20.877C22.3125 18.252 20.2371 16.1109 17.5957 16.0945C13.8059 16.0617 10.0242 16.0617 6.23438 16.0945C3.80625 16.1109 1.79648 17.891 1.48477 20.3027C1.36172 21.2871 1.41094 22.2961 1.41094 23.2887C1.40273 26.4305 1.41094 29.5805 1.40273 32.7223C1.40273 33.2145 1.52578 33.641 1.91133 33.9609C2.3543 34.3219 2.85469 34.3957 3.37148 34.166C3.91289 33.9199 4.2 33.477 4.2 32.8617C4.2 29.884 4.2 26.898 4.2 23.9203C4.2 23.4035 4.18359 22.8785 4.2082 22.3617C4.22461 21.9434 4.54453 21.6809 4.94648 21.6973C5.32383 21.7137 5.57812 21.9844 5.60273 22.3945C5.60273 22.4602 5.60273 22.534 5.60273 22.5996C5.60273 26.9719 5.60273 31.3441 5.60273 35.7246C5.60273 35.9379 5.60273 36.1512 5.60273 36.3727C10.2867 36.3809 14.9133 36.3809 19.5809 36.3809ZM17.5055 6.34102C17.5383 3.6668 15.3645 1.42734 12.6984 1.38633C9.99141 1.34531 7.73555 3.51094 7.70273 6.18516C7.66992 8.94961 9.82734 11.1727 12.5672 11.2055C15.266 11.2383 17.4727 9.05625 17.5055 6.34102ZM19.5809 40.5727C19.5809 39.6375 19.5809 38.7434 19.5809 37.8328C14.9133 37.8328 10.2703 37.8328 5.61914 37.8328C5.61914 38.7598 5.61914 39.6539 5.61914 40.5727C10.2785 40.5727 14.9133 40.5727 19.5809 40.5727ZM31.3113 25.9301C28.9324 25.9301 26.6273 25.9301 24.3141 25.9301C24.2977 25.9793 24.2812 26.0203 24.2648 26.0695C26.0613 26.9227 27.8824 27.7184 29.7035 28.5551C30.2449 27.6691 30.7617 26.8242 31.3113 25.9301Z" fill="#427C9C"/>
<path d="M27.6035 7.69453C25.6922 7.69453 23.7809 7.69453 21.8695 7.69453C21.3281 7.69453 21 7.41563 21.0082 6.98086C21.0082 6.5707 21.3199 6.2918 21.8039 6.2918C23.3461 6.2918 24.8883 6.2918 26.4305 6.2918C28.7766 6.2918 31.1309 6.2918 33.477 6.2918C33.9363 6.2918 34.207 6.48047 34.2809 6.8332C34.3793 7.30078 34.043 7.68633 33.5016 7.69453C32.3039 7.70274 31.098 7.69453 29.9004 7.69453C29.1293 7.69453 28.3664 7.69453 27.6035 7.69453Z" fill="#427C9C"/>
<path d="M31.541 9.78633C33.2883 9.78633 35.0355 9.78633 36.7828 9.78633C36.9469 9.78633 37.1109 9.78633 37.2668 9.81914C37.6031 9.89297 37.7836 10.1391 37.7918 10.4672C37.8 10.8117 37.6195 11.066 37.2668 11.148C37.1191 11.1809 36.9715 11.1809 36.8238 11.1809C33.2883 11.1809 29.7527 11.1809 26.2172 11.1809C25.5445 11.1809 25.2164 10.9512 25.2 10.5C25.1836 10.0242 25.5363 9.77813 26.2254 9.77813C27.9973 9.78633 29.7691 9.78633 31.541 9.78633Z" fill="#427C9C"/>
<path d="M28.0055 14.6836C26.652 14.6836 25.2984 14.6836 23.9531 14.6836C23.4117 14.6836 23.1246 14.4375 23.1164 14.0027C23.1082 13.5516 23.4117 13.2809 23.9695 13.2809C26.6766 13.2809 29.3754 13.2809 32.0824 13.2809C32.5418 13.2809 32.8453 13.5023 32.8945 13.8633C32.9437 14.216 32.8043 14.4867 32.468 14.618C32.3203 14.6754 32.148 14.6754 31.984 14.6754C30.6551 14.6836 29.3344 14.6836 28.0055 14.6836Z" fill="#427C9C"/>
<path d="M22.7555 11.1891C22.616 11.1891 22.4848 11.2055 22.3453 11.1891C21.9598 11.1398 21.7137 10.8773 21.7137 10.5082C21.7055 10.1309 21.9598 9.84375 22.3699 9.80274C22.6242 9.77813 22.8867 9.77813 23.1492 9.80274C23.5512 9.83555 23.8055 10.1309 23.8055 10.5082C23.7973 10.8855 23.5348 11.1563 23.1328 11.1973C23.0016 11.1973 22.8785 11.1891 22.7555 11.1891Z" fill="#427C9C"/>
<path d="M36.7418 6.3C36.8648 6.3 36.9879 6.2918 37.1109 6.3C37.5047 6.32461 37.7918 6.59531 37.8082 6.96445C37.8246 7.33359 37.5375 7.66172 37.1355 7.69453C36.9059 7.71094 36.6762 7.71094 36.4465 7.70274C36.0117 7.68633 35.7 7.37461 35.7082 6.98906C35.7164 6.60352 36.0281 6.31641 36.4711 6.3082C36.5531 6.2918 36.6434 6.3 36.7418 6.3Z" fill="#427C9C"/>
</svg>
