<svg width="43" height="41" viewBox="0 0 43 41" fill="none" xmlns="http://www.w3.org/2000/svg">
<path d="M2.27774 39.5493C2.27774 39.2715 2.27774 39.0863 2.27774 38.9011C2.27774 30.7731 2.27774 22.6452 2.27774 14.5172C2.27774 13.5912 2.47098 13.3957 3.36597 13.3957C6.26451 13.3957 9.16306 13.3957 12.0616 13.3957C12.8956 13.3957 13.1295 13.6221 13.1295 14.4555C13.1295 18.5915 13.1295 22.7172 13.1295 26.8532C13.1295 27.0281 13.1295 27.203 13.0888 27.3676C12.9973 27.7277 12.7532 27.9232 12.3769 27.9026C12.0108 27.8821 11.787 27.6557 11.7362 27.2956C11.7158 27.131 11.726 26.9561 11.726 26.7812C11.726 23.0258 11.726 19.2705 11.726 15.5152C11.726 15.3094 11.726 15.1139 11.726 14.8773C9.04102 14.8773 6.4069 14.8773 3.74227 14.8773C3.74227 23.0876 3.74227 31.2876 3.74227 39.5287C6.38656 39.5287 9.02068 39.5287 11.726 39.5287C11.726 39.3332 11.726 39.1481 11.726 38.9629C11.726 36.9566 11.726 34.9503 11.726 32.944C11.726 32.7897 11.7158 32.6354 11.7362 32.4811C11.787 32.1004 12.0209 31.8946 12.3769 31.8637C12.743 31.8329 12.9973 32.0386 13.0888 32.3987C13.1295 32.5737 13.1295 32.7691 13.1295 32.9646C13.1295 34.94 13.1295 36.9051 13.1295 38.8806C13.1295 39.0863 13.1295 39.2818 13.1295 39.5287C13.994 39.5287 14.8178 39.5287 15.7229 39.5287C15.7229 39.3538 15.7229 39.1789 15.7229 38.9937C15.7229 36.2878 15.7229 33.5716 15.7229 30.8657C15.7229 30.7114 15.7026 30.5571 15.7433 30.4028C15.8246 30.0221 16.0585 29.7752 16.445 29.7854C16.8518 29.7957 17.0959 30.0529 17.1366 30.4645C17.1468 30.5982 17.1468 30.7423 17.1468 30.876C17.1468 33.5716 17.1468 36.257 17.1468 38.9526C17.1468 39.1378 17.1468 39.323 17.1468 39.5287C19.8419 39.5287 22.476 39.5287 25.1712 39.5287C25.1712 39.3127 25.1712 39.1069 25.1712 38.9114C25.1712 34.7137 25.1712 30.5056 25.1712 26.3079C25.1712 26.1536 25.161 25.9992 25.1813 25.8449C25.222 25.454 25.4559 25.207 25.8322 25.1762C26.2289 25.1453 26.473 25.3819 26.5645 25.7523C26.6052 25.9272 26.595 26.1227 26.595 26.3182C26.595 30.5056 26.595 34.6828 26.595 38.8703C26.595 39.076 26.595 39.2715 26.595 39.5184C27.6934 39.5184 28.7511 39.5184 29.88 39.5184C29.88 39.3024 29.88 39.0863 29.88 38.8703C29.88 33.335 29.88 27.7895 29.88 22.2542C29.88 22.1205 29.88 21.9764 29.88 21.8427C29.9004 21.2974 30.175 20.9681 30.6021 20.9784C31.0395 20.9887 31.2937 21.2974 31.2937 21.8735C31.2937 27.5528 31.2937 33.2218 31.2937 38.9011C31.2937 39.1069 31.2937 39.3024 31.2937 39.5287C33.9889 39.5287 36.623 39.5287 39.2876 39.5287C39.2876 26.8326 39.2876 14.1571 39.2876 1.45069C36.623 1.45069 33.9889 1.45069 31.2937 1.45069C31.2937 1.67704 31.2937 1.88281 31.2937 2.07829C31.2937 6.50238 31.2937 10.9265 31.2937 15.3506C31.2937 15.5358 31.3039 15.7312 31.2835 15.9164C31.2429 16.3074 31.0089 16.544 30.6225 16.5749C30.2462 16.6058 30.0122 16.3794 29.9105 16.0399C29.8597 15.8753 29.8699 15.7004 29.8699 15.5358C29.8699 10.7001 29.8699 5.86449 29.8699 1.02886C29.8699 0.21606 30.0936 0 30.8971 0C33.8261 0 36.7654 0 39.6944 0C40.5284 0 40.7216 0.205772 40.7216 1.07001C40.7216 13.6735 40.7216 26.277 40.7216 38.8806C40.7216 39.0863 40.7216 39.2818 40.7216 39.5596C41.1894 39.5596 41.6268 39.5596 42.0539 39.5596C42.654 39.5699 42.9794 39.8168 42.9998 40.2695C43.0099 40.7428 42.6845 41 42.0438 41C29.9614 41 17.8689 41 5.78651 41C4.13891 41 2.50149 41 0.853896 41C0.457253 41 0.152143 40.8868 0.030099 40.4753C-0.102115 40.0123 0.213165 39.611 0.742023 39.5802C1.24037 39.5287 1.72855 39.5493 2.27774 39.5493Z" fill="#427C9C"/>
<path d="M36.8772 12.7476C32.565 19.075 26.7171 23.3036 20.3097 26.8429C17.0654 28.6331 13.699 30.1558 10.2309 31.4419C10.0377 31.5139 9.84447 31.5859 9.65124 31.6168C9.2851 31.6683 9.02068 31.5139 8.89863 31.1538C8.77659 30.804 8.89863 30.5056 9.21391 30.3204C9.3563 30.2279 9.52919 30.1867 9.68175 30.125C15.9365 27.738 21.8556 24.7132 27.2357 20.6595C30.4597 18.2314 33.3583 15.4637 35.5958 12.0479C35.6873 11.9142 35.7585 11.7701 35.911 11.5232C34.894 11.9553 34.0092 12.3566 33.0939 12.6961C32.8599 12.7887 32.504 12.7887 32.2904 12.6652C31.7921 12.3977 31.8836 11.6981 32.443 11.4409C33.104 11.1322 33.7854 10.8647 34.4567 10.587C35.3415 10.2063 36.2365 9.8256 37.1213 9.45521C37.8739 9.14655 38.3011 9.43463 38.3011 10.268C38.3011 11.9142 38.3011 13.5604 38.3011 15.2065C38.3011 15.7724 38.0366 16.0811 37.5891 16.0811C37.1518 16.0811 36.8874 15.7621 36.8874 15.1962C36.8772 14.4246 36.8772 13.6632 36.8772 12.7476Z" fill="#427C9C"/>
<path d="M25.161 12.2023C22.476 12.2023 19.8419 12.2023 17.1366 12.2023C17.1366 12.4183 17.1366 12.6138 17.1366 12.8196C17.1366 16.7807 17.1366 20.7418 17.1366 24.7029C17.1366 24.8572 17.1468 25.0115 17.1264 25.1659C17.0858 25.5568 16.8722 25.8038 16.4755 25.8346C16.0484 25.8655 15.8246 25.6083 15.7229 25.2173C15.6924 25.0836 15.7128 24.9395 15.7128 24.8058C15.7128 20.4846 15.7128 16.1634 15.7128 11.8422C15.7128 10.9676 15.9263 10.7516 16.7908 10.7516C19.7097 10.7516 22.6184 10.7516 25.5373 10.7516C26.3408 10.7516 26.5747 10.9882 26.5747 11.7804C26.5747 13.7353 26.5747 15.6901 26.5747 17.6449C26.5747 18.2725 26.3001 18.6326 25.8526 18.6223C25.4051 18.612 25.161 18.2622 25.161 17.6243C25.161 17.542 25.161 17.4494 25.161 17.3671C25.161 15.8444 25.161 14.3114 25.161 12.7887C25.161 12.6035 25.161 12.4183 25.161 12.2023Z" fill="#427C9C"/>
</svg>
