<svg width="42" height="42" viewBox="0 0 42 42" fill="none" xmlns="http://www.w3.org/2000/svg">
<path d="M42 28.957C42 33.3047 42 37.6523 42 42C27.9973 42 14.0027 42 0 42C0 37.6523 0 33.3047 0 28.957C0.442969 27.6938 1.35352 27.2508 2.66602 27.2918C4.88906 27.3492 7.12031 27.3082 9.34336 27.3082C9.47461 27.3082 9.60586 27.3082 9.79453 27.3082C9.79453 27.0785 9.79453 26.8898 9.79453 26.7012C9.79453 20.8934 9.80273 15.0855 9.79453 9.27773C9.79453 7.37461 10.3852 5.68477 11.5664 4.2C13.0758 2.30508 15.0609 1.12383 17.3742 0.500391C18.2109 0.270703 19.0805 0.164062 19.9336 0C20.6473 0 21.3527 0 22.0664 0C22.173 0.0246094 22.2715 0.065625 22.3781 0.0738281C24.2648 0.2625 26.0531 0.795703 27.6609 1.79648C30.6059 3.62578 32.2547 6.17695 32.2137 9.76992C32.148 15.4383 32.1973 21.1066 32.1973 26.7832C32.1973 26.9391 32.1973 27.1031 32.1973 27.3082C32.3941 27.3082 32.5418 27.3082 32.6895 27.3082C35.0355 27.3082 37.3898 27.3082 39.7359 27.3082C39.9656 27.3082 40.2035 27.3246 40.425 27.382C41.2781 27.5789 41.7129 28.2023 42 28.957ZM1.39453 40.5727C14.4867 40.5727 27.5379 40.5727 40.5973 40.5727C40.5973 40.4332 40.5973 40.3266 40.5973 40.2117C40.5973 36.6844 40.5973 33.157 40.5973 29.6297C40.5973 28.9242 40.3758 28.7027 39.6621 28.7027C37.3242 28.7027 34.9863 28.7027 32.6484 28.7027C32.509 28.7027 32.3613 28.7027 32.1973 28.7027C32.1973 30.6469 32.1398 32.5172 32.2137 34.3875C32.2629 35.6344 31.7297 36.4383 30.6961 37.0125C30.4336 37.1602 30.1629 37.2996 29.8922 37.4145C28.1777 38.1445 26.3648 38.4645 24.5273 38.6531C21.2133 38.9895 17.9238 38.9074 14.659 38.2102C13.3301 37.9312 12.0422 37.5375 10.902 36.7582C10.1637 36.2496 9.76172 35.6016 9.77812 34.6664C9.81094 32.8453 9.78633 31.0324 9.78633 29.2113C9.78633 29.0555 9.78633 28.8914 9.78633 28.6945C9.61406 28.6945 9.49102 28.6945 9.37617 28.6945C7.01367 28.6945 4.64297 28.6945 2.28047 28.6945C1.62422 28.6945 1.39453 28.9324 1.39453 29.5805C1.39453 31.4672 1.39453 33.3539 1.39453 35.2406C1.39453 37.0125 1.39453 38.7762 1.39453 40.5727ZM21.0082 1.38633C18.2273 1.45195 15.6762 2.19844 13.568 4.10977C12.2719 5.28281 11.4023 6.71016 11.2465 8.49023C11.0168 11.1316 12.2227 13.1086 14.2406 14.6508C16.0043 15.9961 18.0469 16.6605 20.2535 16.7754C23.3051 16.9395 26.0859 16.1766 28.4074 14.1258C29.7281 12.9527 30.5977 11.509 30.7617 9.7125C30.975 7.44023 30.0727 5.60273 28.4238 4.10977C26.332 2.19844 23.7973 1.46016 21.0082 1.38633ZM11.2055 23.3707C11.2055 24.7734 11.2793 26.1352 11.1809 27.4723C11.0988 28.5305 11.5664 29.0719 12.4605 29.4164C12.559 29.4574 12.6656 29.4984 12.7641 29.5395C14.6098 30.2695 16.5539 30.5648 18.5227 30.6961C21.5496 30.9012 24.5602 30.8109 27.5215 30.0891C28.5059 29.8512 29.4656 29.5477 30.3188 28.9734C30.6469 28.752 30.8109 28.473 30.8109 28.0547C30.7945 26.6355 30.8027 25.2164 30.8027 23.7891C30.8027 23.6578 30.7863 23.5266 30.7781 23.3707C27.6609 24.8801 24.3551 25.1754 21.0082 25.1754C17.6613 25.1836 14.3473 24.8883 11.2055 23.3707ZM30.7699 13.5926C28.2516 16.8082 24.9129 18.1863 21 18.1863C17.0871 18.1863 13.7402 16.8 11.2055 13.5598C11.2055 15.0035 11.2875 16.3324 11.1809 17.6449C11.0906 18.7277 11.5746 19.2773 12.477 19.6219C12.5918 19.6629 12.6984 19.7203 12.8133 19.7613C14.5195 20.4258 16.3078 20.7211 18.1289 20.8687C21.3199 21.1313 24.4945 21.0574 27.6117 20.2453C28.5141 20.0156 29.3672 19.5973 30.2285 19.2199C30.6469 19.0395 30.8191 18.6785 30.8109 18.1863C30.7863 16.8082 30.8027 15.4219 30.8027 14.0437C30.7945 13.9207 30.7781 13.7977 30.7699 13.5926ZM30.7945 33.1652C27.6527 34.7074 24.3305 34.9863 20.9918 34.9863C17.6531 34.9863 14.3309 34.7074 11.2055 33.157C11.2055 33.5344 11.2547 33.8871 11.1973 34.2152C11.0414 35.1586 11.5254 35.6754 12.3293 35.9953C12.477 36.0609 12.6246 36.1266 12.7805 36.1922C14.6016 36.9141 16.5129 37.2012 18.457 37.3406C21.5086 37.5539 24.552 37.4801 27.5379 36.7172C28.4648 36.4793 29.3508 36.0609 30.2285 35.659C30.4746 35.5441 30.7371 35.2242 30.7699 34.9617C30.8438 34.3957 30.7945 33.8051 30.7945 33.1652ZM30.7617 30.3762C27.6609 31.902 24.3469 32.1809 21 32.1809C17.6449 32.1809 14.3227 31.902 11.2383 30.3762C11.1234 31.3113 11.2055 31.6148 12.034 31.9676C13.0594 32.4023 14.1176 32.8043 15.2004 33.034C18.7934 33.7805 22.4191 33.7641 26.0367 33.198C27.3984 32.9848 28.7437 32.6566 29.966 31.9922C30.7781 31.5574 30.8766 31.3359 30.7617 30.3762ZM11.2547 20.5898C11.0988 21.4102 11.2055 21.7055 11.8863 22.0992C12.1816 22.2715 12.4852 22.4191 12.8051 22.5504C14.2242 23.1164 15.709 23.4035 17.2184 23.5758C20.5078 23.9449 23.7891 23.8875 27.0457 23.1984C28.1531 22.9605 29.2441 22.657 30.2203 22.0418C30.8273 21.6563 30.9504 21.2707 30.7289 20.598C27.6445 22.091 24.3387 22.3781 20.9918 22.3781C17.6449 22.3863 14.3309 22.091 11.2547 20.5898Z" fill="#427C9C"/>
<path d="M27.3082 8.77734C27.3082 9.77812 27.3082 10.7707 27.3082 11.7715C27.3082 12.723 26.7258 13.2973 25.766 13.2973C24.5355 13.2973 23.3051 13.2973 22.0746 13.2973C21.8531 13.2973 21.7383 13.3465 21.6152 13.5762C21.5086 13.773 21.2051 13.9699 20.9836 13.9781C20.7785 13.9863 20.475 13.7812 20.3848 13.5926C20.2617 13.3383 20.1305 13.2973 19.8926 13.2973C18.6785 13.3055 17.4562 13.3055 16.2422 13.3055C15.2578 13.3055 14.6918 12.7477 14.6918 11.7551C14.6836 9.74531 14.6836 7.73555 14.6918 5.72578C14.6918 4.77422 15.2742 4.2082 16.2422 4.2082C17.4562 4.2 18.6785 4.2 19.8926 4.2082C20.1223 4.2082 20.2699 4.1918 20.393 3.92109C20.4832 3.73242 20.7867 3.53555 20.9918 3.54375C21.2133 3.55195 21.5004 3.74883 21.6234 3.9457C21.7465 4.15078 21.8449 4.2 22.05 4.2C23.2805 4.1918 24.5109 4.1918 25.7414 4.2C26.7422 4.2082 27.3082 4.77422 27.3082 5.79141C27.3082 6.78398 27.3082 7.77656 27.3082 8.77734ZM16.1109 11.8863C17.5219 11.8863 18.8836 11.8863 20.2617 11.8863C20.3766 11.509 20.5652 11.2055 21.0164 11.2137C21.4512 11.2219 21.6234 11.5254 21.7301 11.8781C23.1246 11.8781 24.4945 11.8781 25.8809 11.8781C25.8809 9.77812 25.8809 7.71094 25.8809 5.64375C25.8152 5.62734 25.7824 5.60273 25.7414 5.60273C24.4863 5.60273 23.223 5.59453 21.968 5.61094C21.8613 5.61094 21.7547 5.79141 21.6398 5.87344C21.4266 6.02109 21.2133 6.27539 21 6.27539C20.7867 6.27539 20.4832 6.06211 20.3766 5.86523C20.2535 5.62734 20.1305 5.59453 19.909 5.59453C18.7605 5.60273 17.6121 5.59453 16.4637 5.59453C16.3488 5.59453 16.2258 5.61094 16.1027 5.61914C16.1109 7.71914 16.1109 9.77812 16.1109 11.8863Z" fill="#427C9C"/>
</svg>
