<svg width="42" height="42" viewBox="0 0 42 42" fill="none" xmlns="http://www.w3.org/2000/svg">
<path d="M34.7483 31.9405C35.9154 34.1067 37.0348 36.168 38.1541 38.2389C38.2306 38.382 38.3072 38.5156 38.3837 38.6588C38.5463 38.9641 38.5846 39.3172 38.3072 39.5272C38.0967 39.6894 37.7427 39.7944 37.494 39.7371C36.6904 39.5654 35.9059 39.3077 35.0544 39.0691C34.7865 39.823 34.5569 40.5578 34.2699 41.2736C34.1743 41.5217 33.9829 41.7793 33.7629 41.9129C33.4089 42.1324 33.0167 41.9225 32.7775 41.4453C32.0695 40.0616 31.3712 38.6683 30.6728 37.275C30.5962 37.1223 30.5101 36.9792 30.3953 36.7502C30.204 37.1223 30.0509 37.4277 29.8979 37.7331C29.3717 38.7828 28.8359 39.8326 28.3193 40.8823C28.1471 41.2354 27.9558 41.5789 27.4966 41.5694C27.0373 41.5598 26.8556 41.2068 26.6929 40.8537C26.4825 40.3956 26.2337 39.9471 26.0424 39.4795C25.9276 39.2027 25.7745 39.0977 25.4684 39.1264C24.8465 39.1932 24.2247 39.26 23.6124 39.2504C23.3063 39.2409 22.9427 39.1359 22.7227 38.9546C22.4357 38.7065 22.5792 38.3438 22.7322 38.0289C23.5933 36.3112 24.4543 34.5934 25.2866 32.9425C24.9613 32.4749 24.6935 32.0264 24.3682 31.6256C24.2342 31.4538 24.0142 31.3106 23.8037 31.2534C22.4452 30.8621 22.2156 30.6235 22.0434 29.2398C21.9669 28.6195 21.7468 28.4286 21.0963 28.4286C14.4473 28.4286 7.79829 28.4286 1.14929 28.4286C0.202162 28.4286 0.00125666 28.2282 0.00125666 27.2835C0.00125666 18.5707 0.00125666 9.85794 0.00125666 1.13562C-0.0178772 0.19086 0.173461 0.00954302 1.13015 0.00954302C11.2424 0.00954302 21.345 0.00954302 31.4573 0C32.0026 0 32.4235 0.152688 32.8445 0.50578C35.705 2.87245 38.575 5.22003 41.4547 7.56761C41.8374 7.88253 42 8.22608 42 8.71278C41.9904 14.9348 41.9904 21.1473 41.9904 27.3694C41.9904 28.2282 41.7608 28.4477 40.9189 28.4477C40.1249 28.4477 39.3213 28.4287 38.5272 28.4573C38.3646 28.4668 38.1924 28.6004 38.0489 28.7149C37.6853 28.9917 37.3313 29.2684 36.9965 29.5834C36.7956 29.7647 36.5564 29.9746 36.499 30.2132C36.2599 31.1102 35.8963 31.8546 34.7483 31.9405ZM40.4693 26.9209C40.4693 20.9565 40.4693 15.0493 40.4693 9.11358C40.278 9.11358 40.1249 9.11358 39.9718 9.11358C37.4366 9.1613 34.9013 9.19947 32.3661 9.24718C31.4286 9.26627 31.2277 9.05632 31.2181 8.10202C31.2181 6.0789 31.2181 4.06533 31.2181 2.04221C31.2181 1.87043 31.2181 1.69866 31.2181 1.5078C21.2781 1.5078 11.3859 1.5078 1.49369 1.5078C1.49369 9.99154 1.49369 18.4467 1.49369 26.9113C7.84612 26.9113 14.1699 26.9113 20.5031 26.9113C20.5797 26.5964 20.618 26.291 20.7232 26.0143C20.8476 25.6612 20.7902 25.3844 20.5988 25.0695C19.9291 23.9816 19.9674 23.4854 20.7902 22.4929C21.0198 22.2066 21.0963 21.9394 21.0293 21.5768C20.8093 20.403 21.0676 19.8686 22.12 19.3151C22.4931 19.1242 22.694 18.857 22.7896 18.4562C23.0671 17.311 23.4211 16.9961 24.6074 16.853C25.057 16.7957 25.3536 16.6239 25.6214 16.2613C26.2624 15.3643 26.7982 15.1829 27.8505 15.5169C28.3097 15.6601 28.6637 15.6028 29.056 15.3547C29.9648 14.7917 30.5675 14.8108 31.3616 15.4979C31.7538 15.8319 32.1269 15.9178 32.6244 15.8414C33.6959 15.6792 34.1647 15.9273 34.6717 16.9007C34.8822 17.3015 35.1501 17.521 35.5997 17.626C36.7191 17.8932 37.0443 18.2844 37.1687 19.4296C37.207 19.8208 37.3218 20.1358 37.6853 20.3839C38.6898 21.0805 38.8525 21.5863 38.4889 22.7506C38.3741 23.1323 38.4124 23.4377 38.6229 23.7812C39.2639 24.8214 39.216 25.3272 38.4602 26.291C38.3263 26.4628 38.2115 26.6632 38.0393 26.9209C38.929 26.9209 39.6848 26.9209 40.4693 26.9209ZM22.0243 26.8445C22.0817 26.9209 22.1295 27.0831 22.2443 27.1499C23.0479 27.6461 23.4976 28.3428 23.5167 29.3066C23.5167 29.4593 23.7368 29.7265 23.8898 29.7456C24.837 29.8983 25.4779 30.4136 25.8702 31.282C25.9276 31.4156 26.205 31.5492 26.3485 31.5206C27.2861 31.3106 28.0897 31.511 28.7594 32.1886C28.9507 32.3795 29.1421 32.389 29.3525 32.2268C30.1179 31.6446 30.9406 31.5778 31.8304 31.9023C31.9643 31.95 32.2609 31.8546 32.3279 31.7401C32.8253 30.9194 33.5524 30.5186 34.4995 30.4899C34.7578 30.4804 34.9109 30.3754 34.9492 30.0987C35.0831 29.173 35.571 28.5241 36.4512 28.1614C36.7191 28.0565 36.8052 27.8752 36.7286 27.5889C36.5182 26.7395 36.6712 25.9856 37.3026 25.3463C37.5514 25.0981 37.5992 24.85 37.3696 24.5542C36.853 23.8671 36.7478 23.1036 37.0826 22.302C37.2261 21.9489 37.1113 21.739 36.8147 21.5577C36.0876 21.1187 35.7241 20.4698 35.7145 19.6204C35.7145 19.2864 35.5806 19.086 35.2266 19.0383C34.356 18.9143 33.7342 18.4371 33.3993 17.6164C33.275 17.3206 33.0741 17.2061 32.7584 17.2919C31.8973 17.521 31.1511 17.3206 30.5197 16.7003C30.271 16.4617 30.0414 16.4426 29.7639 16.6526C29.056 17.187 28.281 17.2633 27.4583 16.9389C27.1522 16.8148 26.9417 16.9007 26.779 17.1774C26.3198 17.96 25.6119 18.3226 24.7222 18.3321C24.4352 18.3321 24.2821 18.4562 24.2342 18.7425C24.1003 19.6491 23.622 20.2885 22.7705 20.6511C22.5026 20.7656 22.3974 20.9374 22.4739 21.2523C22.6748 22.0921 22.5218 22.8651 21.8904 23.4949C21.6225 23.7526 21.632 24.0007 21.8425 24.287C22.34 24.9645 22.4548 25.6993 22.1391 26.4914C22.1008 26.5773 22.0817 26.6727 22.0243 26.8445ZM39.0534 7.69167C39.063 7.64396 39.0821 7.60578 39.0917 7.55807C36.9965 5.84033 34.9013 4.12258 32.7392 2.34758C32.7392 4.19893 32.7392 5.95484 32.7392 7.69167C34.8535 7.69167 36.9582 7.69167 39.0534 7.69167ZM30.2805 33.2574C31.3425 35.3569 32.3374 37.3227 33.3611 39.3554C33.4663 39.0596 33.5429 38.8592 33.6194 38.6492C33.6959 38.4393 33.7533 38.2293 33.8394 38.0194C34.0403 37.5041 34.3465 37.3514 34.8918 37.4945C35.3127 37.609 35.7432 37.7236 36.2694 37.8572C35.3127 36.0822 34.4134 34.4121 33.5715 32.8566C33.0836 33.0666 32.6627 33.3242 32.2035 33.4101C31.8878 33.4769 31.5242 33.2956 31.1798 33.2574C30.9119 33.2383 30.6441 33.2574 30.2805 33.2574ZM24.5308 37.7235C25.0857 37.6854 25.5258 37.6567 25.9659 37.609C26.492 37.5518 26.8556 37.7426 27.0565 38.2389C27.1713 38.5252 27.3244 38.7924 27.4966 39.1455C28.1567 37.8381 28.769 36.6261 29.3812 35.4141C29.5534 35.0706 29.1421 33.9827 28.7977 33.8014C28.3672 33.5723 27.9462 33.3338 27.5348 33.0761C27.133 32.8184 26.9608 32.8375 26.7503 33.2574C26.2433 34.2594 25.7458 35.271 25.2388 36.273C25.0187 36.7406 24.7987 37.1891 24.5308 37.7235Z" fill="#427C9C"/>
<path d="M11.8929 16.6335C14.4473 16.6335 16.9921 16.6335 19.5465 16.6335C19.7091 16.6335 19.8717 16.6239 20.0248 16.6526C20.417 16.7194 20.6467 16.9675 20.6754 17.3683C20.7041 17.7309 20.4075 18.0554 20.0152 18.1222C19.8717 18.1413 19.7282 18.1413 19.5847 18.1413C14.4569 18.1413 9.31943 18.1413 4.19156 18.1413C4.02893 18.1413 3.86629 18.1508 3.71322 18.1222C3.33054 18.0363 3.09137 17.8073 3.09137 17.3874C3.09137 16.977 3.34011 16.748 3.72279 16.6621C3.87586 16.6335 4.03849 16.643 4.20113 16.643C6.76506 16.6335 9.329 16.6335 11.8929 16.6335Z" fill="#427C9C"/>
<path d="M11.9216 5.33455C14.4664 5.33455 17.0208 5.33455 19.5656 5.33455C19.7282 5.33455 19.8909 5.325 20.0439 5.34409C20.4553 5.40135 20.6754 5.6781 20.6658 6.05982C20.6658 6.45108 20.4362 6.71828 20.0344 6.77554C19.8909 6.79463 19.7474 6.78509 19.6039 6.78509C14.4569 6.78509 9.30986 6.78509 4.16286 6.78509C4.00023 6.78509 3.83759 6.79463 3.68452 6.766C3.31141 6.68966 3.09137 6.45108 3.0818 6.06936C3.07224 5.66855 3.29227 5.41089 3.68452 5.33455C3.83759 5.30592 4.00023 5.31546 4.16286 5.31546C6.7555 5.33455 9.33856 5.33455 11.9216 5.33455Z" fill="#427C9C"/>
<path d="M11.9025 12.4632C9.34813 12.4632 6.80333 12.4632 4.24897 12.4632C4.05763 12.4632 3.86629 12.4727 3.67495 12.4346C3.30184 12.3582 3.09137 12.1196 3.09137 11.7284C3.0818 11.3371 3.30184 11.1081 3.66538 11.0126C3.79932 10.9745 3.95239 10.9936 4.09589 10.9936C9.29073 10.9936 14.4856 10.9936 19.6804 10.9936C19.8239 10.9936 19.977 10.984 20.1109 11.0222C20.4744 11.1176 20.6945 11.3753 20.6754 11.7475C20.6658 12.1196 20.4553 12.3773 20.0726 12.4441C19.9004 12.4727 19.7282 12.4727 19.5465 12.4727C17.0017 12.4632 14.4473 12.4632 11.9025 12.4632Z" fill="#427C9C"/>
<path d="M29.63 29.6311C26.7886 29.6692 24.416 27.3598 24.3682 24.4874C24.3203 21.6436 26.6451 19.2387 29.4769 19.191C32.4044 19.1433 34.8057 21.4527 34.8439 24.3347C34.8822 27.2358 32.5575 29.5929 29.63 29.6311ZM33.3419 24.4588C33.3706 22.3688 31.706 20.6893 29.6204 20.6797C27.5731 20.6702 25.8893 22.302 25.8606 24.3347C25.8319 26.4532 27.4774 28.1424 29.5917 28.1614C31.639 28.1805 33.3228 26.52 33.3419 24.4588Z" fill="#427C9C"/>
</svg>
