<svg width="44" height="42" viewBox="0 0 44 42" fill="none" xmlns="http://www.w3.org/2000/svg">
<path d="M15.1553 5.14997C15.4114 5.01739 15.5821 4.94162 15.7433 4.85639C18.6454 3.31274 21.538 1.77856 24.4401 0.234904C25.1894 -0.162847 25.4928 -0.0776142 25.8912 0.661066C31.8471 11.8549 37.8125 23.0393 43.7684 34.2331C44.1667 34.9813 44.0719 35.2749 43.3226 35.6726C39.5196 37.6898 35.7165 39.7164 31.904 41.7336C31.0694 42.1787 30.7944 42.0934 30.3581 41.2695C25.4265 32.0171 20.5043 22.7552 15.5726 13.5027C15.4683 13.3039 15.364 13.1145 15.1553 12.9251C15.1553 13.0955 15.1553 13.266 15.1553 13.4459C15.1553 22.0828 15.1553 30.7102 15.1553 39.3471C15.1553 39.4702 15.1553 39.6028 15.1553 39.7259C15.1364 40.3509 14.8708 40.6256 14.2544 40.6256C13.1637 40.635 12.0731 40.6256 10.9824 40.6256C7.69148 40.6256 4.41003 40.6256 1.11911 40.6256C0.208647 40.6256 0 40.4077 0 39.5081C0 26.8842 0 14.2604 0 1.62703C0 0.698947 0.208647 0.490601 1.13807 0.490601C5.4343 0.490601 9.74001 0.490601 14.0362 0.490601C14.9372 0.490601 15.1553 0.717888 15.1553 1.61756C15.1553 2.76346 15.1553 3.90936 15.1553 5.14997ZM42.1941 34.5362C36.3614 23.5791 30.5667 12.6978 24.7626 1.78803C21.1682 3.70102 17.6496 5.56666 14.0931 7.45124C19.9163 18.3894 25.711 29.2802 31.5246 40.1994C35.0906 38.3148 38.6281 36.4302 42.1941 34.5362ZM13.6284 39.0724C13.6284 38.8262 13.6284 38.6179 13.6284 38.419C13.6284 29.6969 13.6 20.9653 13.6569 12.2432C13.6664 10.6143 13.4862 9.11801 12.5283 7.7827C12.4809 7.71641 12.4524 7.64065 12.4145 7.57436C12.1869 7.0819 12.2627 6.6368 12.7559 6.46634C13.5431 6.18223 13.7043 5.67083 13.6379 4.90374C13.5715 4.11771 13.6189 3.33168 13.6189 2.53618C13.6189 2.38465 13.6189 2.23313 13.6189 2.06266C9.55981 2.06266 5.55759 2.06266 1.54588 2.06266C1.54588 14.4214 1.54588 26.7327 1.54588 39.0724C5.57656 39.0724 9.5693 39.0724 13.6284 39.0724Z" fill="#427C9C"/>
<path d="M24.3168 5.78448C24.497 5.936 24.7815 6.05911 24.9048 6.27693C26.2421 8.7392 27.5603 11.2204 28.8691 13.7016C29.1062 14.1562 28.9829 14.535 28.5277 14.7812C26.593 15.823 24.6583 16.8457 22.7235 17.8685C22.2588 18.1148 21.87 17.9822 21.6139 17.5087C20.3051 15.0653 18.9963 12.622 17.7065 10.1692C17.441 9.66728 17.5643 9.29794 18.0669 9.0233C19.9732 8.00052 21.8795 6.99667 23.7857 5.98335C23.9185 5.89812 24.0702 5.86971 24.3168 5.78448ZM27.181 13.7679C26.0714 11.6939 24.9902 9.66728 23.909 7.63118C22.3631 8.45509 20.8742 9.24112 19.3567 10.0461C20.4569 12.1106 21.5285 14.1278 22.6192 16.1828C24.1556 15.3684 25.6446 14.5823 27.181 13.7679Z" fill="#427C9C"/>
<path d="M38.998 32.5569C38.9885 35.1802 36.8546 37.292 34.2181 37.2826C31.6384 37.2731 29.4951 35.1139 29.5045 32.519C29.514 29.8958 31.6574 27.7839 34.2939 27.8028C36.9115 27.8218 39.0075 29.9336 38.998 32.5569ZM37.4711 32.5474C37.4711 30.767 36.039 29.337 34.2465 29.337C32.473 29.337 31.022 30.7954 31.0315 32.5664C31.0409 34.3089 32.492 35.7578 34.2465 35.7673C36.02 35.7673 37.4616 34.3278 37.4711 32.5474Z" fill="#427C9C"/>
<path d="M34.8535 25.2743C34.7586 25.3879 34.6354 25.6815 34.4172 25.7951C32.4825 26.8558 30.5288 27.8786 28.5751 28.9108C28.1578 29.1287 27.7121 28.9866 27.5129 28.6078C27.3138 28.229 27.437 27.8028 27.8733 27.5661C29.808 26.5338 31.7428 25.5016 33.687 24.4882C34.256 24.1947 34.8535 24.5356 34.8535 25.2743Z" fill="#427C9C"/>
<path d="M26.6878 26.4581C26.4887 26.2686 26.1757 26.1077 26.1093 25.8709C26.0429 25.6341 26.1852 25.3216 26.2895 25.0565C26.3369 24.9523 26.5076 24.8955 26.6404 24.8292C28.4803 23.8537 30.3202 22.8783 32.16 21.9029C32.2549 21.8555 32.3592 21.7892 32.4635 21.7608C32.8619 21.6661 33.1938 21.7608 33.3835 22.1491C33.5637 22.5279 33.4594 22.8594 33.1179 23.1056C32.9093 23.2476 32.6817 23.3518 32.4541 23.4749C30.7659 24.3746 29.0872 25.2648 27.3991 26.155C27.1905 26.2592 26.9818 26.3255 26.6878 26.4581Z" fill="#427C9C"/>
<path d="M25.2937 23.7969C25.104 23.6359 24.791 23.4844 24.7057 23.2571C24.6298 23.0203 24.7531 22.6984 24.8574 22.4427C24.9048 22.3195 25.104 22.2533 25.2368 22.1775C27.0577 21.2115 28.8881 20.2361 30.709 19.2796C30.8702 19.1944 31.0599 19.1186 31.2401 19.0997C31.591 19.0618 31.904 19.2322 31.9609 19.5732C31.9988 19.8289 31.8755 20.1224 31.7807 20.3876C31.7522 20.4728 31.61 20.5202 31.5151 20.577C29.6184 21.5809 27.731 22.5847 25.8343 23.5886C25.7015 23.6549 25.5403 23.6927 25.2937 23.7969Z" fill="#427C9C"/>
<path d="M23.909 21.1452C23.7193 20.9937 23.4064 20.8706 23.321 20.6623C23.2357 20.4255 23.321 20.1035 23.4064 19.8383C23.4443 19.7152 23.6435 19.6395 23.7762 19.5637C25.6256 18.5788 27.475 17.5939 29.3338 16.609C29.4571 16.5427 29.5899 16.4764 29.7227 16.4575C30.1115 16.3912 30.4055 16.5427 30.5667 16.912C30.709 17.2624 30.6047 17.556 30.3202 17.7928C30.2443 17.8496 30.1589 17.8969 30.0831 17.9443C28.2147 18.9387 26.3559 19.9236 24.4875 20.9179C24.3263 20.9842 24.1651 21.0411 23.909 21.1452Z" fill="#427C9C"/>
<path d="M11.6558 10.2639C11.6558 11.6087 11.6558 12.944 11.6558 14.2888C11.6558 14.9801 11.3997 15.2453 10.7169 15.2453C8.60194 15.2453 6.48702 15.2453 4.3721 15.2453C3.71771 15.2453 3.44267 14.9896 3.44267 14.3361C3.43319 11.6276 3.43319 8.90966 3.44267 6.20117C3.44267 5.53825 3.71771 5.27308 4.36261 5.27308C6.4965 5.26361 8.63039 5.26361 10.7548 5.27308C11.3997 5.27308 11.6558 5.54772 11.6558 6.21064C11.6652 7.54594 11.6558 8.90966 11.6558 10.2639ZM10.1004 13.6921C10.1004 11.353 10.1004 9.08013 10.1004 6.80726C8.38381 6.80726 6.69566 6.80726 4.99804 6.80726C4.99804 9.11801 4.99804 11.4003 4.99804 13.6921C6.71463 13.6921 8.39329 13.6921 10.1004 13.6921Z" fill="#427C9C"/>
<path d="M2.80725 33.6176C2.79776 31.0227 4.92217 28.8824 7.52077 28.873C10.1383 28.8635 12.3007 31.0132 12.3007 33.6176C12.3007 36.2408 10.1573 38.3622 7.52077 38.3527C4.91268 38.3432 2.81673 36.2314 2.80725 33.6176ZM4.34365 33.5986C4.33416 35.3885 5.75675 36.8185 7.54922 36.8185C9.32272 36.8185 10.7832 35.3696 10.7738 33.5986C10.7643 31.8466 9.3322 30.4072 7.57767 30.3882C5.80417 30.3693 4.34365 31.8182 4.34365 33.5986Z" fill="#427C9C"/>
<path d="M7.53025 20.2361C8.60194 20.2361 9.67362 20.2361 10.7548 20.2361C11.3049 20.2361 11.6558 20.5297 11.6558 20.9937C11.6558 21.4483 11.3143 21.7608 10.7643 21.7608C8.6209 21.7608 6.46805 21.7608 4.32468 21.7608C3.78409 21.7608 3.43319 21.4388 3.44267 20.9842C3.45215 20.5486 3.79358 20.2456 4.31519 20.2456C5.38688 20.2361 6.45856 20.2361 7.53025 20.2361Z" fill="#427C9C"/>
<path d="M7.52077 24.7723C6.52495 24.7723 5.52914 24.7723 4.53332 24.7723C4.39107 24.7723 4.24881 24.7818 4.10655 24.7534C3.68925 24.6871 3.41422 24.3557 3.43319 23.9674C3.45216 23.5696 3.74616 23.276 4.17293 23.2571C4.67558 23.2382 5.17823 23.2476 5.69037 23.2476C7.39748 23.2476 9.0951 23.2476 10.8022 23.2476C11.2954 23.2476 11.6178 23.5412 11.6368 23.9674C11.6558 24.403 11.3238 24.7345 10.8212 24.7723C10.7074 24.7818 10.603 24.7723 10.4892 24.7723C9.51239 24.7723 8.51658 24.7723 7.52077 24.7723Z" fill="#427C9C"/>
<path d="M7.53025 18.7587C6.48702 18.7587 5.44378 18.7587 4.40055 18.7587C3.79358 18.7587 3.45215 18.4841 3.44267 18.0201C3.43319 17.556 3.79358 17.2435 4.3721 17.2435C6.48702 17.234 8.60194 17.234 10.7169 17.2435C11.3712 17.2435 11.7791 17.6886 11.6178 18.2095C11.4945 18.6167 11.2005 18.7682 10.7927 18.7682C9.70207 18.7587 8.6209 18.7587 7.53025 18.7587Z" fill="#427C9C"/>
<path d="M7.53025 27.7555C6.47753 27.7555 5.41533 27.7649 4.36261 27.7555C3.79358 27.7555 3.46164 27.4619 3.45216 27.0168C3.44267 26.5528 3.80306 26.2402 4.38158 26.2402C6.4965 26.2308 8.61142 26.2308 10.7263 26.2402C11.3807 26.2402 11.7885 26.6853 11.6273 27.2062C11.504 27.6134 11.21 27.7649 10.8022 27.7649C9.70207 27.746 8.6209 27.7555 7.53025 27.7555Z" fill="#427C9C"/>
</svg>
