<svg width="42" height="42" viewBox="0 0 42 42" fill="none" xmlns="http://www.w3.org/2000/svg">
<path d="M7.30692 5.9519C9.72454 5.97156 11.464 4.80182 12.3584 2.55081C12.4173 2.4132 12.4665 2.27558 12.5254 2.13797C12.781 1.55801 13.1151 1.40074 13.6949 1.65631C14.491 2.01018 15.2969 2.32473 16.1814 2.32473C17.6064 2.33456 18.8348 1.84307 19.8569 0.850271C20.024 0.692996 20.1812 0.52589 20.3385 0.358785C20.82 -0.113042 21.2131 -0.132701 21.675 0.378444C22.5792 1.36142 23.6209 2.06916 24.9673 2.26575C25.8322 2.39354 26.6675 2.30507 27.4734 2.00035C27.6896 1.92171 27.896 1.82341 28.1024 1.73495C28.9672 1.37125 29.2227 1.46954 29.5667 2.32473C29.6257 2.46235 29.6748 2.59996 29.7338 2.73758C30.579 4.7625 32.3774 5.9519 34.5788 5.94207C36.0137 5.93224 36.0432 5.96173 36.0432 7.38704C36.0432 9.64788 37.2323 11.4172 39.3256 12.2822C39.3846 12.3117 39.4436 12.3314 39.5123 12.3511C40.5541 12.7639 40.6425 12.9605 40.1905 14.0024C39.2077 16.3124 39.6106 18.3374 41.3993 20.0969C41.527 20.2247 41.6646 20.3426 41.7825 20.4802C42.0676 20.8144 42.0774 21.1683 41.7825 21.5025C41.5565 21.7581 41.2912 21.9842 41.0553 22.2398C39.6892 23.8027 39.3453 25.572 40.0332 27.538C40.1413 27.8427 40.2887 28.1376 40.4067 28.4423C40.5737 28.9043 40.4361 29.2385 39.9939 29.4548C39.7286 29.5826 39.4436 29.6612 39.1782 29.789C37.193 30.713 36.1611 32.2759 36.0825 34.4581C36.0726 34.6842 36.0825 34.9201 36.0825 35.1462C36.0825 35.8146 35.8368 36.0407 35.1587 36.0604C34.5592 36.0898 33.9302 36.0604 33.3504 36.198C31.6698 36.601 30.4708 37.6233 29.7829 39.2157C29.6945 39.4123 29.6257 39.6089 29.547 39.8055C29.2817 40.4444 28.9476 40.5919 28.3088 40.3166C27.5225 39.9726 26.7363 39.6777 25.8617 39.6679C24.4071 39.658 23.1787 40.1495 22.1468 41.1718C22.0092 41.3094 21.8716 41.4569 21.734 41.5945C21.2033 42.1253 20.8397 42.145 20.3286 41.5945C19.454 40.641 18.4319 39.9431 17.1248 39.7367C16.2108 39.5991 15.3263 39.6777 14.4713 40.0119C14.1863 40.1299 13.9013 40.2576 13.6065 40.3658C13.1249 40.5525 12.7908 40.4051 12.5648 39.9431C12.5549 39.9136 12.5353 39.8841 12.5254 39.8546C11.582 37.1809 9.69506 35.9227 6.85485 36.0505C6.21605 36.08 5.99001 35.8048 5.96053 35.1659C5.92122 34.4876 5.93104 33.7799 5.7738 33.1213C5.40035 31.6271 4.45689 30.5459 3.07118 29.8775C2.77635 29.73 2.47169 29.6317 2.16703 29.4941C1.57737 29.2385 1.47909 28.924 1.67564 28.3145C1.92134 27.5773 2.24565 26.8302 2.31445 26.0734C2.48152 24.4809 1.88203 23.1244 0.732183 22.0137C-0.250588 21.0504 -0.240761 20.9619 0.742011 19.9888C2.36358 18.3668 2.77635 16.2829 1.88203 14.1696C1.35133 12.9113 1.38081 12.8229 2.66824 12.3019C4.79103 11.4369 5.97036 9.66754 5.97036 7.37721C5.97036 7.34772 5.97036 7.3084 5.97036 7.27891C5.97036 6.03054 6.0588 5.94207 7.30692 5.9519ZM3.3267 13.6682C4.32913 16.3911 3.86722 18.8485 1.86237 21.011C3.86722 23.1638 4.33895 25.6212 3.3267 28.3538C6.00967 29.5826 7.36589 31.6665 7.48382 34.5466C10.4027 34.7137 12.4665 36.0702 13.6851 38.7144C16.4369 37.6921 18.8938 38.1934 21.0264 40.1692C23.1885 38.1639 25.6356 37.7019 28.3579 38.7144C29.5765 36.021 31.66 34.6744 34.5592 34.5564C34.6869 31.6173 36.0825 29.5531 38.7163 28.344C37.704 25.5819 38.1856 23.1441 40.1708 21.011C38.1758 18.8583 37.704 16.4206 38.7163 13.6781C36.053 12.469 34.6869 10.3851 34.5494 7.46568C31.6403 7.33789 29.5569 5.96173 28.3382 3.3077C25.5865 4.32017 23.1492 3.83851 21.0166 1.86273C18.1174 4.00561 17.1543 4.19238 13.6655 3.32736C12.4566 5.98139 10.3535 7.35755 7.46417 7.47551C7.34624 10.3851 5.98018 12.4297 3.3267 13.6682Z" fill="#427C9C"/>
<path d="M37.0259 21.011C37.0358 29.789 29.8615 36.9745 21.0657 37.0138C12.2699 37.0433 5.04655 29.8381 5.0269 21.0209C5.00724 12.2233 12.211 5.00825 21.0166 4.99842C29.8124 4.98859 37.0161 12.1938 37.0259 21.011ZM35.542 20.9914C35.542 13.0096 29.0065 6.47288 21.0264 6.48271C13.0267 6.48271 6.4814 13.049 6.50105 21.0405C6.53053 29.0321 13.0856 35.559 21.0461 35.5197C29.0458 35.4902 35.542 28.983 35.542 20.9914Z" fill="#427C9C"/>
<path d="M16.0929 12.2331C18.3631 12.2429 20.1616 14.0614 20.1419 16.3518C20.1223 18.5634 18.314 20.3623 16.0831 20.3721C13.8325 20.3819 11.9751 18.5241 11.9947 16.2731C12.0242 14.0319 13.8522 12.2233 16.0929 12.2331ZM16.1027 13.7174C14.6777 13.7076 13.4984 14.8576 13.4787 16.2731C13.4591 17.6788 14.6384 18.8682 16.0536 18.878C17.4786 18.8878 18.6579 17.7377 18.6678 16.3223C18.6776 14.8871 17.5277 13.7272 16.1027 13.7174Z" fill="#427C9C"/>
<path d="M24.8985 21.5615C27.1294 21.5418 28.977 23.3603 28.9869 25.5917C28.9967 27.8525 27.1884 29.6907 24.928 29.7005C22.6971 29.7104 20.8495 27.9017 20.8299 25.6703C20.8102 23.4193 22.6283 21.5812 24.8985 21.5615ZM24.928 28.2064C26.353 28.1966 27.5127 27.0268 27.5029 25.6114C27.4931 24.1959 26.3137 23.036 24.8887 23.0458C23.4735 23.0556 22.2942 24.2352 22.304 25.6408C22.3237 27.0563 23.503 28.2162 24.928 28.2064Z" fill="#427C9C"/>
<path d="M15.1593 27.4692C14.4713 27.4888 14.088 26.8892 14.3534 26.3977C14.432 26.2601 14.55 26.1422 14.6679 26.0242C18.3631 22.3282 22.0485 18.6322 25.7437 14.9461C25.8518 14.838 25.9501 14.7298 26.068 14.6512C26.3825 14.4546 26.7068 14.4939 26.9624 14.7495C27.2277 15.0051 27.2768 15.3196 27.0803 15.644C27.0017 15.7718 26.8936 15.8701 26.7953 15.9782C23.1001 19.6742 19.4147 23.3702 15.7194 27.0563C15.5229 27.2431 15.2772 27.3807 15.1593 27.4692Z" fill="#427C9C"/>
</svg>
