<svg width="41" height="44" viewBox="0 0 41 44" fill="none" xmlns="http://www.w3.org/2000/svg">
<path d="M25.0769 43.9999C24.0278 43.9999 22.6257 43.6372 21.2824 43.0587C17.5075 41.4313 14.2228 39.0489 11.2127 36.2842C7.70257 33.0686 4.72188 29.4019 2.65304 25.1078C1.61372 22.9509 0.917574 20.6078 0.123376 18.3333C-0.170771 17.4902 0.0841567 16.6666 0.643037 15.9902C2.52558 13.7745 4.42773 11.5784 6.33969 9.38233C6.82013 8.83332 7.56531 8.89214 7.9477 9.49998C9.48707 11.9608 11.0362 14.4215 12.556 16.9019C13.2423 18.0196 13.0561 18.8529 12.0462 19.696C11.3892 20.2353 10.7617 20.8039 10.1244 21.3725C9.67336 21.7745 9.5557 22.2549 9.77141 22.8333C11.7324 28.1078 14.9484 32.2352 20.3313 34.3921C21.5765 34.8921 22.4394 34.7254 23.41 33.7744C23.9395 33.245 24.4592 32.7058 25.0082 32.1862C25.5671 31.6568 26.2339 31.549 26.9006 31.9411C28.185 32.6862 29.4597 33.4509 30.7049 34.2548C32.009 35.098 33.264 35.9999 34.5386 36.8823C35.225 37.3529 35.2446 38.0489 34.6171 38.5882C33.3522 39.6764 32.0972 40.7646 30.8422 41.8627C29.3028 43.2058 27.5673 44.0097 25.0769 43.9999ZM33.2738 37.745C30.9598 36.2548 28.7145 34.8137 26.4888 33.3627C26.1946 33.1666 25.9887 33.2352 25.7632 33.4705C25.2534 33.9999 24.7533 34.5391 24.214 35.0391C23.0277 36.1666 21.6256 36.4901 20.096 35.9019C18.4978 35.2842 16.9486 34.5293 15.5759 33.4901C11.9971 30.7745 9.68317 27.1764 8.24184 22.9607C7.92809 22.0294 8.11438 21.2156 8.83994 20.549C9.53609 19.9117 10.2322 19.2647 10.9578 18.6568C11.5559 18.147 11.5755 18.1666 11.1735 17.5098C9.85966 15.4019 8.5458 13.2941 7.23194 11.1961C7.1633 11.0882 7.08487 11 6.98682 10.8529C5.38862 12.7157 3.83944 14.5784 2.22163 16.3725C1.54509 17.1274 1.38821 17.8235 1.78041 18.7647C2.65304 20.8725 3.25114 23.1176 4.31988 25.1078C7.41823 30.9019 11.8501 35.5391 17.3212 39.1764C19.0665 40.3333 20.8706 41.3725 22.8708 42.0391C25.675 42.9705 28.136 42.4509 30.2637 40.3627C31.0677 39.5784 31.9501 38.8725 32.8032 38.1372C32.9208 38.0489 33.0483 37.9411 33.2738 37.745Z" fill="#427C9C"/>
<path d="M27.5869 0C35.2446 0.0686273 41.3923 6.54901 40.9804 14.1666C40.5883 21.5 34.3425 27.196 26.9986 26.9019C25.6358 26.8529 24.3121 26.5784 23.0277 26.1274C22.7923 26.049 22.4786 26.049 22.2433 26.1274C20.5764 26.696 18.9194 27.2941 17.2624 27.8823C16.9094 28.0097 16.5662 28.098 16.2525 27.8137C15.9583 27.5392 15.9975 27.2156 16.076 26.8627C16.4289 25.3725 16.7721 23.8725 17.0761 22.3725C17.1251 22.1568 17.0565 21.8529 16.929 21.6764C14.9386 19.049 14.0071 16.098 14.1346 12.8039C14.3601 6.68626 19.1743 1.21568 25.2141 0.254901C25.9985 0.137255 26.7927 0.0882351 27.5869 0ZM17.7722 26.1078C18.0468 26.0196 18.2232 25.9607 18.3899 25.9019C19.6057 25.4705 20.8215 25.049 22.0276 24.598C22.4492 24.4411 22.8316 24.4509 23.2532 24.6078C24.9396 25.2549 26.6751 25.5196 28.489 25.3725C34.6759 24.8823 39.4803 19.7156 39.5097 13.5196C39.5391 6.09803 32.862 0.450979 25.5181 1.70588C16.5662 3.23529 12.5266 13.9411 18.2527 20.9509C18.6449 21.4313 18.7625 21.8725 18.6056 22.4705C18.3115 23.647 18.0664 24.8235 17.7722 26.1078Z" fill="#427C9C"/>
<path d="M30.8226 10.147C30.8128 10.9412 30.4892 11.8431 29.744 12.5196C28.5674 13.5882 27.8909 14.8529 27.8517 16.4509C27.8419 16.9019 27.4987 17.1666 27.0673 17.147C26.6457 17.1176 26.3711 16.8235 26.3809 16.3529C26.4104 14.549 27.0673 13.0098 28.3909 11.7843C28.9792 11.2353 29.3714 10.6274 29.3322 9.7843C29.2734 8.65685 28.3713 7.75489 27.2536 7.70587C26.0574 7.65685 25.0573 8.48038 24.92 9.61763C24.8318 10.3823 24.5866 10.6863 24.0964 10.647C23.5767 10.6078 23.3708 10.2157 23.4493 9.44116C23.6356 7.54901 25.371 6.11764 27.3418 6.21567C29.3126 6.31371 30.8226 7.91175 30.8226 10.147Z" fill="#427C9C"/>
<path d="M26.1456 18.9607C26.1848 18.4117 26.6555 18.0098 27.2144 18.0588C27.7438 18.1078 28.1262 18.5686 28.087 19.098C28.0478 19.647 27.5771 20.049 27.0183 19.9902C26.4888 19.9509 26.1064 19.5 26.1456 18.9607Z" fill="#427C9C"/>
</svg>
