<svg width="40" height="44" viewBox="0 0 40 44" fill="none" xmlns="http://www.w3.org/2000/svg">
<path d="M20.032 0.0104023C23.0191 0.0104023 25.9958 0.0306257 28.9829 0.000290614C29.7219 -0.00982109 30.1278 0.242972 30.4505 0.910344C32.0949 4.31799 34.8947 6.14821 38.7561 6.41111C39.8073 6.48189 39.9842 6.65379 39.9842 7.66496C39.9842 13.1253 40.0259 18.5856 39.9738 24.0459C39.9218 29.4961 37.6008 33.8543 32.9692 36.9383C31.2623 38.081 29.3888 38.9809 27.5778 39.982C25.2777 41.256 22.9567 42.5099 20.6565 43.7941C20.2402 44.0267 19.8655 44.0873 19.4387 43.8446C15.5565 41.701 11.6119 39.6382 7.79213 37.3934C2.69219 34.3902 0.121402 29.8804 0.0381373 24.0965C-0.034719 18.5856 0.0173212 13.0747 0.0277293 7.56385C0.0277293 6.68413 0.246298 6.46167 1.14139 6.41111C5.14849 6.16843 7.98989 4.28765 9.65518 0.738445C9.91538 0.192413 10.2901 0.0104023 10.8729 0.0104023C13.9225 0.020514 16.972 0.0104023 20.032 0.0104023ZM1.73465 8.00876C1.72424 8.1301 1.70343 8.211 1.70343 8.302C1.70343 13.7623 1.58894 19.2226 1.74506 24.683C1.88036 29.5467 4.21177 33.379 8.49988 35.9171C12.1635 38.0911 15.9625 40.0629 19.7094 42.1054C19.8759 42.1964 20.1881 42.1762 20.3547 42.0852C23.935 40.1336 27.5362 38.2124 31.0749 36.1901C35.6649 33.5813 38.1524 29.6377 38.2773 24.4807C38.4126 19.1215 38.3085 13.7623 38.3189 8.40312C38.3189 8.10988 38.2461 7.99865 37.9234 7.9582C33.9476 7.47284 31.0229 5.50106 29.1599 2.07319C28.9829 1.7395 28.7956 1.62828 28.4105 1.62828C22.8109 1.63839 17.201 1.63839 11.6015 1.62828C11.2164 1.62828 11.0186 1.7395 10.8521 2.07319C10.0819 3.60006 8.98906 4.86402 7.58397 5.87519C5.86665 7.12904 3.92034 7.81664 1.73465 8.00876Z" fill="#427C9C"/>
<path d="M20.0008 5.65273C22.2177 5.65273 24.445 5.66285 26.6619 5.64262C27.2344 5.64262 27.5882 5.84486 27.838 6.36055C28.9725 8.76714 30.9188 10.1019 33.6457 10.3345C34.7594 10.4255 34.8947 10.567 34.8947 11.6692C34.8947 15.5622 34.9155 19.4552 34.8843 23.3482C34.8531 27.9693 32.7715 31.4477 28.6395 33.7532C26.0166 35.2194 23.3626 36.6451 20.7293 38.1113C20.2193 38.3944 19.803 38.4045 19.2826 38.1113C16.6286 36.6249 13.9329 35.1991 11.2788 33.7026C7.25092 31.4275 5.17971 27.9895 5.12767 23.4594C5.08604 19.4451 5.11727 15.4409 5.11727 11.4265C5.11727 10.6479 5.35665 10.4052 6.14766 10.3547C8.97865 10.1727 11.0082 8.84803 12.1843 6.33022C12.4029 5.85497 12.7464 5.65273 13.2772 5.65273C15.5253 5.66285 17.763 5.65273 20.0008 5.65273ZM33.219 11.9624C30.1903 11.5377 27.9629 10.112 26.5266 7.53351C26.4434 7.39195 26.1415 7.29083 25.9334 7.29083C21.9991 7.28072 18.0649 7.28072 14.1202 7.27061C13.7455 7.27061 13.5374 7.36161 13.3604 7.6953C12.278 9.63675 10.6439 10.9412 8.47907 11.6085C7.93785 11.7703 7.37581 11.8613 6.79296 11.9928C6.79296 12.1546 6.79296 12.3265 6.79296 12.4882C6.79296 16.1487 6.76174 19.799 6.80337 23.4594C6.845 27.3525 8.59356 30.3152 12.0594 32.2769C14.5574 33.6925 17.0969 35.0475 19.6053 36.4429C19.8967 36.6047 20.1153 36.6148 20.4067 36.4429C22.8734 35.0677 25.3505 33.7329 27.8172 32.3577C31.3872 30.3759 33.1878 27.3626 33.219 23.3684C33.2398 19.7586 33.219 16.1588 33.219 12.5489C33.219 12.3568 33.219 12.1748 33.219 11.9624Z" fill="#427C9C"/>
<path d="M28.6082 22.0438C28.5874 26.6345 24.674 30.4163 19.9696 30.3759C15.2443 30.3354 11.4037 26.5941 11.4037 22.0236C11.4037 17.443 15.3067 13.6511 20.0216 13.6612C24.7364 13.6713 28.6291 17.4632 28.6082 22.0438ZM19.9383 28.7479C23.6956 28.8389 26.8181 25.866 26.9325 22.1045C27.047 18.4542 23.9142 15.3499 20.0528 15.2892C16.2851 15.2285 13.1627 18.2216 13.0794 21.9629C12.9962 25.6132 16.0769 28.6569 19.9383 28.7479Z" fill="#427C9C"/>
<path d="M19.3555 22.7415C19.98 21.7101 20.5732 20.7192 21.1769 19.7485C21.4995 19.2328 22.0824 19.1215 22.4883 19.4957C22.811 19.7889 22.8526 20.1428 22.6444 20.5068C21.8742 21.8011 21.0936 23.0954 20.3026 24.3695C20.0216 24.8144 19.5324 24.9155 19.0953 24.6122C18.5645 24.238 18.0441 23.8336 17.5549 23.419C17.1906 23.1156 17.1594 22.6202 17.4508 22.2865C17.7214 21.973 18.1898 21.9124 18.5749 22.155C18.8247 22.3269 19.0641 22.5191 19.3555 22.7415Z" fill="#427C9C"/>
</svg>
