<svg width="42" height="42" viewBox="0 0 42 42" fill="none" xmlns="http://www.w3.org/2000/svg">
<path d="M0 29.4607C0.245998 28.755 0.393596 27.9918 0.754393 27.3599C1.80398 25.5217 3.43577 24.5533 5.55955 24.5205C7.44553 24.4877 9.33151 24.4877 11.2175 24.5205C13.6201 24.5698 15.3175 25.7351 16.3424 27.9015C16.3916 28.0082 16.4408 28.1231 16.5064 28.2544C17.9906 27.8359 19.4994 28.0082 21 28.0082C22.4924 28.0082 24.0012 27.8359 25.4936 28.2544C25.5592 28.1231 25.6084 28.0082 25.6576 27.9015C26.6743 25.7268 28.3799 24.5616 30.7825 24.5123C32.6275 24.4713 34.4725 24.4959 36.3175 24.5041C39.1792 24.5205 41.4096 26.3998 41.9262 29.2145C41.9426 29.2966 41.9754 29.3705 42 29.4443C42 32.095 42 34.7538 42 37.4045C41.7048 38.2251 41.1062 38.5123 40.2534 38.5041C36.8258 38.4795 33.3983 38.4959 29.9707 38.4877C29.7985 38.4877 29.6263 38.4877 29.4049 38.4877C29.4049 39.1114 29.3803 39.6858 29.4131 40.2521C29.4705 41.1137 29.1343 41.7046 28.3143 42C23.4518 42 18.581 42 13.7185 42C12.9231 41.7128 12.5623 41.1465 12.6197 40.2931C12.6443 39.9402 12.6279 39.5791 12.6279 39.2263C12.6279 38.9883 12.6279 38.7503 12.6279 38.4877C12.3163 38.4877 12.0867 38.4877 11.8571 38.4877C8.49512 38.4877 5.14135 38.4713 1.77938 38.4959C0.885592 38.5287 0.295197 38.2415 0 37.4209C0 34.7702 0 32.1114 0 29.4607ZM14.0055 40.5967C18.6958 40.5967 23.3206 40.5967 27.9617 40.5967C27.9699 40.449 27.9781 40.3341 27.9781 40.211C27.9781 38.0199 27.9863 35.837 27.9781 33.646C27.9699 31.2661 26.1578 29.4361 23.7798 29.4115C21.9348 29.3951 20.0898 29.3951 18.2448 29.4115C15.8176 29.4279 14.0137 31.2415 14.0055 33.687C13.9973 35.7796 14.0055 37.8722 14.0055 39.9648C14.0055 40.1618 14.0055 40.3669 14.0055 40.5967ZM40.5404 37.0844C40.565 37.027 40.5814 37.0023 40.5814 36.9777C40.5814 34.5979 40.6306 32.2181 40.565 29.8464C40.5076 27.7046 38.6626 25.9566 36.5307 25.9238C34.5791 25.8992 32.6275 25.8828 30.6759 25.9238C28.9457 25.9648 27.7239 26.8347 26.9613 28.3857C26.7973 28.7222 26.8137 28.9109 27.1499 29.1571C28.3143 30.0023 29.0851 31.1512 29.2655 32.5791C29.4049 33.6295 29.3557 34.7046 29.3885 35.7632C29.3967 36.1981 29.3885 36.6331 29.3885 37.0844C33.1359 37.0844 36.8258 37.0844 40.5404 37.0844ZM12.5951 37.0844C12.5951 36.9367 12.5951 36.7972 12.5951 36.6659C12.5951 35.6811 12.5951 34.6964 12.5951 33.7116C12.5951 31.7749 13.3659 30.2157 14.9239 29.075C15.1699 28.8945 15.1781 28.7468 15.0715 28.5006C14.4319 26.9496 12.9313 25.9238 11.2257 25.9156C9.38071 25.9074 7.53573 25.9074 5.69075 25.9156C3.19797 25.9238 1.38579 27.7456 1.38579 30.2485C1.38579 32.3904 1.38579 34.5404 1.38579 36.6823C1.38579 36.8136 1.38579 36.9449 1.38579 37.0844C5.14955 37.0844 8.84772 37.0844 12.5951 37.0844Z" fill="#427C9C"/>
<path d="M38.2116 0C38.5478 0.188746 38.925 0.344666 39.2202 0.590856C39.6712 0.968347 39.8762 1.49355 39.8762 2.08441C39.8762 3.95545 39.8926 5.8347 39.8762 7.70574C39.8598 8.9449 38.9824 9.79015 37.7278 9.80657C36.4733 9.82298 35.2105 9.79836 33.9559 9.82298C33.7591 9.82298 33.5049 9.93787 33.3737 10.0856C32.7833 10.7175 32.2339 11.374 31.6599 12.0223C30.9547 12.8183 30.0691 12.8265 29.3639 12.0387C28.7817 11.3904 28.1995 10.7339 27.6337 10.061C27.4615 9.8558 27.2811 9.76553 27.0105 9.77374C26.1496 9.79836 25.2886 9.78195 24.4276 9.81477C24.239 9.82298 24.0012 9.92966 23.8782 10.061C23.2796 10.7011 22.722 11.374 22.1398 12.0223C21.4428 12.8101 20.549 12.8019 19.8438 12.0141C19.2534 11.3494 18.6794 10.6682 18.0726 10.0199C17.9496 9.88863 17.7364 9.79015 17.5642 9.78195C16.6868 9.76553 15.8176 9.77374 14.9403 9.80657C14.7353 9.81477 14.4893 9.92966 14.3581 10.0774C13.7595 10.7175 13.2019 11.3904 12.6197 12.0387C11.9391 12.8019 11.0371 12.7937 10.3565 12.0223C9.76611 11.3576 9.19211 10.6764 8.58532 10.0281C8.45412 9.88863 8.22452 9.78195 8.03592 9.78195C6.82234 9.76553 5.60055 9.79015 4.38696 9.79836C2.97657 9.80657 2.10738 8.9449 2.10738 7.53341C2.10738 5.89215 2.14838 4.25088 2.09098 2.60961C2.04998 1.31301 2.51738 0.418523 3.77196 0C15.2519 0 26.7317 0 38.2116 0ZM30.5283 11.2345C31.1679 10.4877 31.7911 9.79015 32.3815 9.05979C32.7587 8.60023 33.2179 8.39508 33.8083 8.39508C35.0793 8.41149 36.3503 8.40328 37.6212 8.39508C38.2608 8.39508 38.4822 8.17351 38.4822 7.52521C38.4822 5.85932 38.4822 4.18523 38.4822 2.51934C38.4822 1.53458 38.3428 1.39508 37.3424 1.39508C34.1855 1.39508 31.0285 1.39508 27.8715 1.39508C20.057 1.39508 12.2425 1.39508 4.41976 1.39508C3.73916 1.39508 3.50957 1.61665 3.50957 2.30598C3.50957 4.04572 3.50957 5.77726 3.50957 7.517C3.50957 8.18171 3.73096 8.39508 4.39516 8.39508C5.37915 8.39508 6.36314 8.40328 7.34713 8.39508C9.20851 8.37866 8.98711 8.37046 10.1351 9.65885C10.5943 10.1758 11.0453 10.6928 11.5209 11.2263C12.1851 10.4467 12.8165 9.7163 13.4397 8.96952C13.7677 8.57562 14.1859 8.38687 14.6943 8.38687C15.7357 8.38687 16.7688 8.38687 17.8102 8.38687C18.3022 8.38687 18.704 8.56741 19.032 8.9449C19.5896 9.60141 20.1636 10.2415 20.7376 10.8898C20.8278 10.9965 20.9344 11.095 21.041 11.2181C21.6806 10.4631 22.3038 9.75733 22.9024 9.02696C23.2714 8.57562 23.7224 8.37866 24.2964 8.38687C25.1984 8.39508 26.1004 8.4197 27.0023 8.37866C27.7321 8.34584 28.2815 8.59203 28.7407 9.16647C29.2983 9.88042 29.9133 10.5369 30.5283 11.2345Z" fill="#427C9C"/>
<path d="M20.9672 26.6049C18.2694 26.5967 16.0636 24.381 16.0882 21.6811C16.1046 18.9812 18.3186 16.7984 21.0246 16.8066C23.7142 16.823 25.8954 19.0059 25.9036 21.6893C25.9036 24.4138 23.6978 26.6131 20.9672 26.6049ZM20.9754 25.2016C22.8942 25.2181 24.485 23.6424 24.4932 21.7304C24.5014 19.8019 22.9434 18.2263 21.0246 18.2098C19.0976 18.1934 17.515 19.7362 17.4904 21.6565C17.4658 23.6014 19.032 25.1934 20.9754 25.2016Z" fill="#427C9C"/>
<path d="M3.50957 18.2263C3.49317 15.5346 5.66615 13.3189 8.33932 13.3025C11.0535 13.2861 13.2839 15.4689 13.2921 18.1524C13.3003 20.9015 11.1519 23.0926 8.41312 23.1172C5.72355 23.1336 3.51777 20.9426 3.50957 18.2263ZM4.90355 18.177C4.87895 20.1137 6.40414 21.6729 8.34752 21.714C10.2581 21.755 11.8735 20.1794 11.8817 18.2673C11.8981 16.3306 10.3647 14.7386 8.44592 14.714C6.51074 14.6729 4.92815 16.2239 4.90355 18.177Z" fill="#427C9C"/>
<path d="M38.474 18.2016C38.474 20.9097 36.2929 23.109 33.5869 23.109C30.8891 23.109 28.6915 20.9179 28.6915 18.2016C28.6915 15.4936 30.8809 13.2943 33.5787 13.2943C36.2847 13.3025 38.474 15.4936 38.474 18.2016ZM37.08 18.2098C37.08 16.2814 35.5303 14.7057 33.6033 14.6975C31.6845 14.6893 30.1019 16.2567 30.0937 18.177C30.0855 20.1301 31.6517 21.714 33.5951 21.7057C35.5221 21.7057 37.0718 20.1465 37.08 18.2098Z" fill="#427C9C"/>
<path d="M14.3417 6.99179C11.6931 6.99179 9.04451 6.99179 6.39594 6.99179C6.08434 6.99179 5.78914 6.91794 5.69075 6.6143C5.62515 6.40914 5.60875 6.06448 5.73175 5.94138C5.91214 5.75264 6.23194 5.61313 6.50254 5.60492C8.53612 5.58031 10.5697 5.58851 12.6033 5.58851C15.7684 5.58851 18.9336 5.58851 22.107 5.58851C22.2464 5.58851 22.3858 5.58031 22.517 5.60492C22.8778 5.67878 23.1238 5.99062 23.091 6.34349C23.0664 6.69637 22.7876 6.96718 22.4104 6.98359C21.8774 7 21.3444 6.99179 20.8114 6.99179C18.6548 7 16.4982 7 14.3417 6.99179Z" fill="#427C9C"/>
<path d="M11.9063 4.19344C10.0777 4.19344 8.24912 4.19344 6.42054 4.19344C5.89574 4.19344 5.55955 3.88159 5.60055 3.44666C5.63335 3.04455 5.94494 2.79836 6.44514 2.79836C8.33932 2.79836 10.2417 2.79836 12.1359 2.79836C13.8825 2.79836 15.6291 2.79836 17.3756 2.79836C17.9988 2.79836 18.3596 3.29074 18.13 3.79133C17.9742 4.11958 17.6954 4.20164 17.351 4.20164C15.5307 4.19344 13.7185 4.19344 11.9063 4.19344Z" fill="#427C9C"/>
<path d="M32.1437 4.19344C31.0367 4.19344 29.9297 4.19344 28.8309 4.19344C28.3143 4.19344 27.9945 3.92263 27.9945 3.5041C27.9863 3.08558 28.3143 2.79836 28.8227 2.79836C31.0777 2.79836 33.3245 2.79836 35.5795 2.79836C36.0797 2.79836 36.4077 3.09379 36.3995 3.51231C36.3913 3.92263 36.0797 4.19344 35.5959 4.19344C34.4315 4.20164 33.2917 4.19344 32.1437 4.19344Z" fill="#427C9C"/>
<path d="M23.0828 4.19344C22.1808 4.19344 21.2788 4.20164 20.3768 4.19344C19.893 4.19344 19.5896 3.91442 19.5978 3.48769C19.5978 3.07737 19.9176 2.79015 20.3932 2.79015C22.1972 2.79015 24.0012 2.79015 25.8052 2.79015C26.2398 2.79015 26.5267 3.01993 26.5759 3.3728C26.6251 3.72567 26.4857 3.99648 26.1496 4.12778C26.0266 4.17702 25.879 4.17702 25.7478 4.17702C24.8622 4.19344 23.9684 4.19344 23.0828 4.19344Z" fill="#427C9C"/>
<path d="M26.2316 6.99179C25.879 6.99179 25.5264 7 25.1738 6.99179C24.7802 6.97538 24.526 6.72098 24.5014 6.35991C24.4768 5.97421 24.7146 5.63775 25.1 5.62134C25.8626 5.58851 26.6251 5.58851 27.3877 5.62134C27.7731 5.63775 28.0109 5.99062 27.9781 6.36811C27.9535 6.72919 27.6911 6.97538 27.2975 6.99179C27.1171 7 26.9449 6.99179 26.7645 6.99179C26.5923 6.99179 26.4119 6.99179 26.2316 6.99179Z" fill="#427C9C"/>
</svg>
