<svg width="34" height="48" viewBox="0 0 34 48" fill="none" xmlns="http://www.w3.org/2000/svg">
<path d="M34 1.125C34 13.1906 34 25.2469 34 37.3125C33.411 39.3937 31.948 40.0688 30.0671 39.9938C28.3286 39.9188 26.5901 39.975 24.8516 39.975C24.6806 39.975 24.5096 39.975 24.3006 39.975C24.3006 40.2 24.3006 40.3687 24.3006 40.5375C24.3006 42.4781 24.3006 44.4094 24.3006 46.35C24.3006 46.9031 24.1391 47.3719 23.5977 47.625C23.0467 47.8781 22.5622 47.7188 22.1157 47.3344C21.3272 46.6406 20.5102 45.975 19.7027 45.2812C18.9522 45.9188 18.2302 46.5562 17.4797 47.1469C17.0712 47.475 16.5963 47.7188 16.1498 48C15.9883 48 15.8363 48 15.6748 48C15.2473 47.7281 14.7913 47.475 14.3923 47.1656C13.6323 46.5656 12.9008 45.9281 12.1503 45.2906C11.5518 45.7969 11.0103 46.2844 10.4308 46.7344C9.85136 47.1844 9.24336 47.5781 8.64487 48C8.48338 48 8.33138 48 8.16988 48C7.75189 47.7562 7.31489 47.55 6.9349 47.25C6.13691 46.6219 5.37692 45.9469 4.58843 45.2812C3.79044 45.9562 3.02096 46.6031 2.25147 47.2594C1.32048 48.0469 0.598491 47.925 0 46.875C0 38.5594 0 30.2531 0 21.9375C0.0189997 21.9 0.0569992 21.8625 0.066499 21.8156C0.560492 20.0625 1.70998 19.2094 3.55295 19.2094C5.41492 19.2094 7.28639 19.2094 9.14837 19.2094C9.31936 19.2094 9.48086 19.2094 9.68986 19.2094C9.68986 18.9656 9.68986 18.7781 9.68986 18.5906C9.68986 12.9563 9.68986 7.32187 9.68986 1.6875C9.68986 1.11563 9.83236 0.628125 10.3928 0.365625C10.9723 0.09375 11.4568 0.290625 11.9033 0.684375C12.6823 1.36875 13.4803 2.025 14.2878 2.70937C15.0668 2.05312 15.8078 1.39687 16.5868 0.7875C16.9762 0.478125 17.4227 0.2625 17.8502 0C18.0117 0 18.1637 0 18.3252 0C18.7432 0.2625 19.1897 0.496875 19.5697 0.80625C20.3392 1.41563 21.0802 2.0625 21.8402 2.70937C22.4387 2.20312 22.9802 1.71563 23.5692 1.26562C24.1486 0.825 24.7566 0.421875 25.3551 0C25.5166 0 25.6686 0 25.8301 0C26.2386 0.24375 26.6851 0.45 27.0651 0.75C27.8631 1.37812 28.6231 2.05312 29.4116 2.71875C30.2096 2.04375 30.979 1.39688 31.7485 0.75C32.67 -0.0375 33.411 0.084375 34 1.125ZM18.0687 1.63125C17.2232 2.34375 16.3968 3.04688 15.5703 3.74063C14.6298 4.52813 13.9458 4.52812 13.0053 3.73125C12.4733 3.28125 11.9318 2.83125 11.3143 2.30625C11.3143 2.61563 11.3143 2.79375 11.3143 2.98125C11.3143 13.9031 11.3143 24.825 11.3143 35.7469C11.3143 36.6187 11.3998 37.5 10.8963 38.3812C11.1528 38.3812 11.3238 38.3812 11.4853 38.3812C17.8217 38.3812 24.1486 38.3812 30.4851 38.3812C31.7675 38.3812 32.3755 37.7812 32.3755 36.525C32.3755 25.3031 32.3755 14.0906 32.3755 2.86875C32.3755 2.71875 32.3755 2.56875 32.3755 2.40938C32.29 2.42813 32.252 2.41875 32.233 2.4375C31.701 2.87812 31.169 3.32812 30.6371 3.76875C29.7441 4.50938 29.0221 4.50938 28.1481 3.76875C27.3121 3.05625 26.4666 2.35312 25.6116 1.63125C24.7661 2.34375 23.9491 3.0375 23.1322 3.73125C22.1822 4.5375 21.4887 4.5375 20.5292 3.72188C19.7312 3.02813 18.9142 2.34375 18.0687 1.63125ZM22.6477 39.9844C22.4102 39.9844 22.2202 39.9844 22.0397 39.9844C17.4702 39.9844 12.8913 39.9844 8.32188 39.9844C6.19391 39.9844 4.84493 38.6531 4.84493 36.5625C4.84493 34.0125 4.84493 31.4719 4.84493 28.9219C4.84493 26.7656 4.84493 24.6094 4.84493 22.4531C4.84493 21.7031 4.43644 21.1312 3.78094 20.8969C2.68846 20.5125 1.61498 21.3563 1.61498 22.6031C1.61498 30.1594 1.61498 37.725 1.61498 45.2812C1.61498 45.3844 1.62448 45.4781 1.63398 45.6656C2.25147 45.1406 2.80246 44.6813 3.35345 44.2125C4.23694 43.4719 4.95893 43.4719 5.84241 44.2219C6.6784 44.9344 7.52389 45.6375 8.34088 46.3313C8.41688 46.2938 8.45488 46.2844 8.47388 46.2656C9.24336 45.6188 10.0129 44.9719 10.7823 44.3156C11.8273 43.425 12.4638 43.4344 13.5278 44.325C14.3163 45 15.1143 45.6656 15.9313 46.35C16.7768 45.6375 17.6032 44.9344 18.4392 44.2312C19.3797 43.4437 20.0542 43.4437 20.9947 44.2406C21.5267 44.6906 22.0587 45.1406 22.6667 45.6469C22.6477 43.725 22.6477 41.8875 22.6477 39.9844ZM6.22241 20.8219C6.30791 21.5531 6.45041 22.2375 6.45041 22.9219C6.46941 26.6719 6.45991 30.4125 6.45991 34.1625C6.45991 35.025 6.45041 35.8781 6.45991 36.7406C6.4789 37.8094 7.34339 38.5219 8.38838 38.3438C9.17687 38.2125 9.68986 37.5562 9.68986 36.6375C9.68986 31.5 9.68986 26.3625 9.68986 21.225C9.68986 21.0938 9.67086 20.9531 9.66136 20.8125C8.46438 20.8219 7.29589 20.8219 6.22241 20.8219Z" fill="#427C9C"/>
<path d="M21.8402 31.9875C19.5507 31.9875 17.2517 31.9875 14.9623 31.9875C14.8008 31.9875 14.6488 31.9969 14.4873 31.9781C14.0693 31.9313 13.8223 31.6969 13.7653 31.2937C13.7178 30.8906 13.8983 30.5906 14.2973 30.4594C14.4873 30.3937 14.6963 30.3938 14.9053 30.3938C19.5412 30.3938 24.1771 30.3938 28.8131 30.3938C29.0316 30.3938 29.2596 30.4031 29.4591 30.4781C29.8296 30.6188 29.9721 30.9187 29.9246 31.3031C29.8771 31.6875 29.6301 31.9125 29.2406 31.9688C29.0981 31.9875 28.9556 31.9781 28.8131 31.9781C26.4951 31.9875 24.1676 31.9875 21.8402 31.9875Z" fill="#427C9C"/>
<path d="M21.8402 19.9969C19.5317 19.9969 17.2232 19.9969 14.9148 19.9969C14.7723 19.9969 14.6298 20.0063 14.4873 19.9875C14.0693 19.9406 13.8318 19.6969 13.7748 19.2938C13.7178 18.9 13.9553 18.5531 14.3638 18.45C14.5443 18.4031 14.7343 18.4031 14.9243 18.4031C19.5602 18.4031 24.1961 18.4031 28.8321 18.4031C29.0221 18.4031 29.2121 18.4125 29.3926 18.4594C29.7916 18.5812 29.9816 18.8719 29.9436 19.2844C29.9056 19.6969 29.6586 19.9312 29.2501 19.9875C29.0981 20.0063 28.9366 19.9969 28.7751 19.9969C26.4571 19.9969 24.1486 19.9969 21.8402 19.9969Z" fill="#427C9C"/>
<path d="M19.3987 12.0094C17.8502 12.0094 16.2923 12.0094 14.7438 12.0094C14.1263 12.0094 13.7748 11.7281 13.7653 11.2313C13.7558 10.725 14.1168 10.4062 14.7533 10.4062C17.8692 10.4062 20.9947 10.4062 24.1106 10.4062C24.7281 10.4062 25.0796 10.6969 25.0891 11.1844C25.0986 11.7094 24.7566 12 24.1011 12C22.5337 12.0094 20.9662 12.0094 19.3987 12.0094Z" fill="#427C9C"/>
<path d="M24.2626 14.4188C25.8301 14.4188 27.3976 14.4188 28.9651 14.4188C29.5921 14.4188 29.9341 14.6906 29.9436 15.1875C29.9531 15.7031 29.5921 16.0125 28.9556 16.0125C25.8396 16.0125 22.7237 16.0125 19.5982 16.0125C18.9997 16.0125 18.6292 15.7031 18.6102 15.225C18.6007 14.7281 18.9712 14.4188 19.6077 14.4188C21.1562 14.4188 22.7142 14.4188 24.2626 14.4188Z" fill="#427C9C"/>
<path d="M24.2816 22.4062C25.8301 22.4062 27.3881 22.4062 28.9366 22.4062C29.5921 22.4062 29.9436 22.6875 29.9436 23.2031C29.9436 23.7188 29.5921 24 28.9366 24C25.8206 24 22.6952 24 19.5792 24C18.9902 24 18.6102 23.6812 18.6102 23.2031C18.6102 22.725 18.9807 22.4062 19.5792 22.4062C21.1467 22.4062 22.7142 22.4062 24.2816 22.4062Z" fill="#427C9C"/>
<path d="M19.4177 26.4C21.0042 26.4 22.5812 26.3906 24.1676 26.4C24.8326 26.4 25.2316 26.8594 25.0606 27.4125C24.9086 27.9 24.5096 27.9938 24.0441 27.9938C21.6407 27.9844 19.2372 27.9938 16.8243 27.9938C16.1308 27.9938 15.4278 28.0031 14.7343 27.9938C14.1263 27.9844 13.7748 27.6844 13.7653 27.1969C13.7558 26.7 14.1073 26.4 14.7153 26.4C16.2828 26.4 17.8502 26.4 19.4177 26.4Z" fill="#427C9C"/>
<path d="M18.6102 6.4125C19.8642 6.4125 21.1087 6.4125 22.3627 6.4125C22.5337 6.4125 22.7142 6.4125 22.8757 6.45938C23.2557 6.5625 23.4552 6.825 23.4647 7.20938C23.4647 7.60313 23.2652 7.86562 22.8852 7.96875C22.7332 8.01562 22.5717 8.01562 22.4197 8.01562C19.8927 8.01562 17.3562 8.01562 14.8293 8.01562C14.7343 8.01562 14.6393 8.01562 14.5443 8.00625C14.0693 7.95 13.7748 7.64062 13.7653 7.21875C13.7653 6.7875 14.0598 6.46875 14.5348 6.42188C14.6773 6.40312 14.8198 6.4125 14.9623 6.4125C16.1783 6.4125 17.3942 6.4125 18.6102 6.4125Z" fill="#427C9C"/>
<path d="M15.4088 14.4188C15.6748 14.4188 15.9503 14.4094 16.2163 14.4188C16.6628 14.4469 16.9668 14.7469 16.9953 15.15C17.0238 15.5531 16.7483 15.9469 16.3208 15.975C15.6938 16.0219 15.0573 16.0219 14.4303 15.975C14.0028 15.9469 13.7368 15.5437 13.7748 15.1406C13.8033 14.7281 14.1073 14.4375 14.5633 14.4188C14.8388 14.4094 15.1238 14.4188 15.4088 14.4188Z" fill="#427C9C"/>
<path d="M15.3518 35.9906C15.0953 35.9906 14.8483 36 14.5918 35.9906C14.0788 35.9625 13.7463 35.6156 13.7653 35.1656C13.7843 34.7156 14.1073 34.4156 14.6013 34.4062C15.1238 34.3969 15.6368 34.3969 16.1593 34.4062C16.6533 34.4156 16.9858 34.7344 16.9953 35.175C17.0047 35.6063 16.6818 35.9625 16.1973 35.9906C15.9123 36.0094 15.6273 35.9906 15.3518 35.9906Z" fill="#427C9C"/>
<path d="M28.3096 12.0094C28.0436 12.0094 27.7681 12.0188 27.5021 12.0094C27.0461 11.9813 26.7136 11.6531 26.7041 11.2313C26.6946 10.8375 27.0081 10.4531 27.4261 10.4344C28.0246 10.3969 28.6326 10.3969 29.2311 10.4344C29.6776 10.4625 29.9626 10.8375 29.9341 11.2781C29.9056 11.6906 29.6111 11.9906 29.1551 12.0094C28.8796 12.0188 28.5946 12.0094 28.3096 12.0094Z" fill="#427C9C"/>
<path d="M15.3993 22.4062C15.6843 22.4062 15.9693 22.3875 16.2543 22.4062C16.6818 22.4438 16.9858 22.7812 16.9953 23.1844C17.0047 23.5875 16.7008 23.9625 16.2828 23.9812C15.6843 24.0094 15.0763 24.0094 14.4778 23.9812C14.0503 23.9625 13.7653 23.5969 13.7653 23.1844C13.7748 22.7719 14.0693 22.4438 14.4968 22.4062C14.8008 22.3875 15.0953 22.4062 15.3993 22.4062Z" fill="#427C9C"/>
<path d="M28.3381 26.4094C28.6231 26.4094 28.9081 26.3906 29.1931 26.4094C29.6206 26.4375 29.9056 26.7188 29.9436 27.1125C29.9816 27.5344 29.7346 27.9188 29.3071 27.9563C28.6611 28.0031 28.0151 28.0031 27.3691 27.9563C26.9701 27.9281 26.7041 27.5344 26.7231 27.1594C26.7421 26.775 27.0366 26.4562 27.4451 26.4187C27.7301 26.3906 28.0341 26.4094 28.3381 26.4094Z" fill="#427C9C"/>
</svg>
